<?xml version="1.0" encoding="UTF-8" standalone="no"?>
<!-- Created with Inkscape (http://www.inkscape.org/) -->

<svg
   xmlns:dc="http://purl.org/dc/elements/1.1/"
   xmlns:cc="http://creativecommons.org/ns#"
   xmlns:rdf="http://www.w3.org/1999/02/22-rdf-syntax-ns#"
   xmlns:svg="http://www.w3.org/2000/svg"
   xmlns="http://www.w3.org/2000/svg"
   xmlns:sodipodi="http://sodipodi.sourceforge.net/DTD/sodipodi-0.dtd"
   xmlns:inkscape="http://www.inkscape.org/namespaces/inkscape"
   width="210mm"
   height="297mm"
   viewBox="0 0 210 297"
   version="1.1"
   id="svg5190"
   inkscape:version="0.92.3 (2405546, 2018-03-11)"
   sodipodi:docname="Django-ForRunners.svg">
  <title
     id="title5218">Django-ForRunners</title>
  <defs
     id="defs5184" />
  <sodipodi:namedview
     id="base"
     pagecolor="#ffffff"
     bordercolor="#666666"
     borderopacity="1.0"
     inkscape:pageopacity="0.0"
     inkscape:pageshadow="2"
     inkscape:zoom="0.35"
     inkscape:cx="400"
     inkscape:cy="560"
     inkscape:document-units="mm"
     inkscape:current-layer="layer1"
     showgrid="false"
     inkscape:window-width="1920"
     inkscape:window-height="1123"
     inkscape:window-x="1920"
     inkscape:window-y="26"
     inkscape:window-maximized="1" />
  <metadata
     id="metadata5187">
    <rdf:RDF>
      <cc:Work
         rdf:about="">
        <dc:format>image/svg+xml</dc:format>
        <dc:type
           rdf:resource="http://purl.org/dc/dcmitype/StillImage" />
        <dc:title>Django-ForRunners</dc:title>
        <dc:date>09.09.2018</dc:date>
        <dc:creator>
          <cc:Agent>
            <dc:title>Jens Diemer</dc:title>
          </cc:Agent>
        </dc:creator>
        <dc:rights>
          <cc:Agent>
            <dc:title>Creative Commons Attribution Share Alike 4.0 (CC-BY-SA-4.0)</dc:title>
          </cc:Agent>
        </dc:rights>
        <dc:subject>
          <rdf:Bag>
            <rdf:li>running</rdf:li>
            <rdf:li>marathon</rdf:li>
            <rdf:li>Django-ForRunners</rdf:li>
            <rdf:li>Django</rdf:li>
            <rdf:li>Python</rdf:li>
          </rdf:Bag>
        </dc:subject>
        <cc:license
           rdf:resource="http://creativecommons.org/licenses/by-nc-sa/4.0/" />
      </cc:Work>
      <cc:License
         rdf:about="http://creativecommons.org/licenses/by-nc-sa/4.0/">
        <cc:permits
           rdf:resource="http://creativecommons.org/ns#Reproduction" />
        <cc:permits
           rdf:resource="http://creativecommons.org/ns#Distribution" />
        <cc:requires
           rdf:resource="http://creativecommons.org/ns#Notice" />
        <cc:requires
           rdf:resource="http://creativecommons.org/ns#Attribution" />
        <cc:prohibits
           rdf:resource="http://creativecommons.org/ns#CommercialUse" />
        <cc:permits
           rdf:resource="http://creativecommons.org/ns#DerivativeWorks" />
        <cc:requires
           rdf:resource="http://creativecommons.org/ns#ShareAlike" />
      </cc:License>
    </rdf:RDF>
  </metadata>
  <g
     inkscape:label="Ebene 1"
     inkscape:groupmode="layer"
     id="layer1">
    <g
       id="g5163"
       transform="translate(43.664454,2.2888938)">
      <path
         inkscape:connector-curvature="0"
         id="path4318"
         d="m 56.727957,8.3489098 c 4.677217,-1.8708865 5.612659,-2.7395125 9.354434,-2.3386082 3.741772,0.4009044 5.211754,0.6013564 7.015824,1.6036171 1.804069,1.0022607 2.739511,1.4031651 4.075861,3.6081383 1.336347,2.204974 2.672694,3.608139 2.939965,4.209495 0.267269,0.601357 0.06682,5.144939 0.133633,5.813113 0.06682,0.668173 2.271792,3.608138 2.873148,5.07812 0.601355,1.469982 0.734991,1.603618 0.668173,2.338609 -0.06682,0.734991 -9.68852,0.868624 -9.68852,0.868624 L 60.269278,32.069079 55.792512,20.108769 56.460688,8.2820924 Z"
         style="fill:#ffffff;stroke:none;stroke-width:0.26499999;stroke-linecap:butt;stroke-linejoin:miter;stroke-miterlimit:4;stroke-dasharray:none;stroke-opacity:1" />
      <path
         style="fill:#d9ed9f;stroke-width:0.76288193"
         d="m 63.287456,286.74349 c -4.978302,-0.23248 -5.997573,-0.53387 -7.872544,-2.32778 -3.137878,-3.00221 -4.833286,-6.87015 -3.701578,-8.44486 2.411269,-3.35515 3.900478,-9.2819 4.469942,-17.78945 0.333985,-4.98958 0.08788,-6.77926 -1.649741,-11.99685 -1.123257,-3.37284 -1.824961,-6.48406 -1.559344,-6.91385 0.265618,-0.42977 0.161419,-0.78141 -0.231552,-0.78141 -1.640447,0 -2.665623,2.64194 -2.894926,7.46041 -0.134196,2.81993 -0.635645,7.53022 -1.114332,10.46732 -0.478687,2.93709 -1.129622,7.9149 -1.446522,11.06178 -0.920743,9.14315 -2.450892,11.44323 -7.612698,11.44323 -1.613108,0 -3.243558,-0.81968 -5.199607,-2.61403 L 31.62495,273.69398 31.5827,263.52973 c -0.04046,-9.73253 -0.739033,-13.96458 -3.478171,-21.0712 -1.205988,-3.12891 -0.742284,-6.06137 1.352047,-8.55034 1.796007,-2.13443 2.335903,-2.35165 4.729053,-1.90269 1.485868,0.27875 3.396265,0.99339 4.245327,1.5881 0.849062,0.5947 1.767461,1.08128 2.040887,1.08128 0.273426,0 0.646396,-3.89939 0.828822,-8.66531 0.320822,-8.38154 0.4198,-8.8 3.022371,-12.77827 1.479879,-2.26213 2.960887,-4.57763 3.291131,-5.14557 0.330244,-0.56793 0.686113,-5.71738 0.790821,-11.44323 0.104707,-5.72584 0.412358,-10.93284 0.683669,-11.57111 0.657511,-1.54681 -6.75849,-11.49711 -16.557553,-22.21583 -0.760372,-0.83173 -2.080678,-3.12155 -2.934015,-5.08848 -1.353998,-3.12095 -1.566482,-5.34359 -1.669034,-17.45848 -0.08652,-10.22044 0.134024,-14.13436 0.836089,-14.83805 1.738071,-1.74211 0.988303,-2.28319 -1.294876,-0.93448 -3.632508,2.14577 -5.542455,0.7011 -9.424384,-7.12855 -1.827276,-3.68552 -3.77561,-7.90249 -4.329632,-9.37104 -0.554023,-1.46855 -1.955944,-4.72987 -3.115382,-7.24738 C 6.0931823,91.003643 5.9104095,84.447184 9.9793028,78.528067 c 1.2056862,-1.753934 2.1921562,-3.496402 2.1921562,-3.872144 0,-0.375742 0.896483,-1.515427 1.992185,-2.532638 1.095701,-1.017204 3.28539,-3.737596 4.865974,-6.045313 1.580585,-2.307718 3.616765,-4.863076 4.524844,-5.678572 1.744424,-1.566572 6.416521,-3.445217 8.616104,-3.464525 0.719674,-0.0063 2.48881,-1.047813 3.931413,-2.314436 2.765304,-2.427969 9.178406,-4.80013 11.232902,-4.154971 0.668345,0.209876 2.127357,-0.335931 3.242249,-1.212905 3.0338,-2.386388 2.806896,-7.146967 -0.688263,-14.440139 l -2.715338,-5.665959 1.380097,-3.060509 c 0.938,-2.080112 1.316379,-4.492592 1.181188,-7.531049 -0.291713,-6.556327 2.548571,-10.4559615 7.61556,-10.4559615 h 1.622849 l -1.700129,1.8097047 c -1.443703,1.5367498 -1.521291,1.8783308 -0.514422,2.2647028 0.652139,0.250249 1.185707,1.083707 1.185707,1.852128 0,1.745045 1.429089,3.228047 3.110693,3.228047 1.73792,0 3.364835,1.968399 2.214517,2.679336 -0.468565,0.289588 -0.67389,0.990501 -0.456281,1.557583 0.21761,0.567083 -0.48758,1.674452 -1.567091,2.46082 -1.490136,1.085489 -1.835984,1.829154 -1.436303,3.088435 0.906397,2.855804 2.746586,3.232921 9.277022,1.901176 4.881874,-0.995556 6.633654,-1.057918 9.345234,-0.332681 2.515313,0.672744 3.597317,0.67661 4.393666,0.0157 1.76016,-1.460807 1.311051,1.894692 -0.469233,3.505827 -0.83917,0.759439 -1.525764,2.151745 -1.525764,3.094014 0,0.942269 -0.854889,3.549612 -1.899753,5.794097 -1.044863,2.244486 -1.903106,4.715566 -1.907205,5.491291 -0.01207,2.283438 4.370583,5.790695 7.897783,6.32028 1.736106,0.260663 4.327318,1.178817 5.758256,2.040342 2.28915,1.378232 2.426621,1.627881 1.144323,2.078115 -1.219848,0.428306 -0.916893,0.787532 1.8588,2.20404 3.485928,1.778962 4.80708,1.653274 3.183621,-0.302875 -0.530752,-0.639516 -0.639516,-1.162758 -0.241696,-1.162758 0.977702,0 4.040802,3.32051 4.040802,4.38037 0,0.466985 0.85978,1.52537 1.91063,2.351966 1.06119,0.834725 2.11325,2.639988 2.36635,4.0605 0.25065,1.406679 1.09509,4.340018 1.87654,6.518535 0.78144,2.178508 1.37928,4.924883 1.32852,6.103055 -0.0507,1.178164 1.07137,4.834619 2.49362,8.125455 2.53948,5.875923 2.55895,6.003042 1.08451,7.081177 -1.4811,1.08301 -1.47913,1.103669 0.14554,1.528526 1.436,0.375521 1.71547,1.162044 2.18203,6.141006 0.33239,3.54709 0.23241,6.3369 -0.26391,7.36433 -0.43946,0.90971 -1.01134,2.62765 -1.27083,3.81765 -0.59944,2.74885 -3.6649,5.84663 -5.78566,5.84663 -0.89696,0 -2.5037,-0.68659 -3.57053,-1.52576 -1.06683,-0.83917 -2.39299,-1.52576 -2.94702,-1.52576 -0.554024,0 -2.902373,-1.85017 -5.218552,-4.11148 l -4.211223,-4.11147 -0.429075,2.77643 c -1.509911,9.7703 -3.32818,18.86679 -4.250969,21.26693 -0.360989,0.93889 -0.472758,5.2301 -0.248372,9.53602 0.435911,8.36526 0.0206,10.94427 -3.087162,19.17086 -1.088495,2.88138 -2.262525,8.03523 -2.60895,11.45301 -0.346428,3.41777 -1.190634,7.29854 -1.876017,8.62393 -0.903256,1.7467 -1.18158,3.94813 -1.01149,8.00048 0.15779,3.7593 -0.239458,7.34 -1.212685,10.93086 -0.890811,3.28676 -1.517885,8.42028 -1.630795,13.35043 -0.149377,6.52251 -0.618263,9.35632 -2.524552,15.25764 -2.950867,9.13503 -3.532882,12.53124 -3.519428,20.53677 0.0097,5.74231 0.193617,6.57148 1.734895,7.81954 0.948255,0.76784 2.491104,1.39608 3.428552,1.39608 0.93745,0 2.343998,0.70669 3.125664,1.57043 1.818816,2.00976 0.650254,4.16447 -2.235006,4.12112 -1.518255,-0.0228 -1.999073,0.34542 -1.992204,1.52576 0.01459,2.50812 2.064792,9.50608 3.367459,11.4942 1.421037,2.16878 1.580251,6.54185 0.28532,7.83679 -0.503502,0.5035 -2.30581,0.84724 -4.00513,0.76387 -1.69932,-0.0834 -5.663093,-0.27176 -8.808384,-0.41866 z M 31.384882,99.263335 c 0.456346,-8.656596 0.35392,-10.208435 -0.805642,-12.20611 -0.903338,-1.556257 -1.925096,-2.288646 -3.192901,-2.288646 -1.699859,0 -1.920313,0.404068 -2.497318,4.577291 -1.835498,13.27534 -0.187067,20.71799 4.441747,20.05445 1.411788,-0.20238 1.572103,-0.99353 2.054114,-10.136985 z m 32.748424,-86.014937 -0.82627,-2.479366 1.514523,1.801 c 1.620466,1.926982 1.94251,3.157733 0.826269,3.157733 -0.378539,0 -1.060074,-1.115715 -1.514522,-2.479367 z m 7.92439,-4.3183918 c -2.47962,-1.2247291 -3.365155,-1.9828567 -2.53058,-2.16649 1.398055,-0.3076177 5.559534,1.5902998 6.373005,2.9065236 0.842506,1.3632032 0.143134,1.2285072 -3.842425,-0.7400336 z"
         id="path4295"
         inkscape:connector-curvature="0" />
      <path
         style="fill:#cae664;stroke-width:0.76288193"
         d="m 63.781932,286.60491 c -6.346822,-0.40948 -6.85841,-0.57164 -8.565013,-2.71484 -3.183405,-3.9978 -3.722704,-6.12869 -2.30644,-9.11324 1.521952,-3.20727 2.575713,-8.02772 3.494024,-15.98348 0.625876,-5.42226 0.510363,-6.57897 -1.17154,-11.73133 -1.026231,-3.14378 -1.865876,-6.55899 -1.865876,-7.58936 0,-1.1558 -0.365275,-1.75441 -0.953603,-1.56277 -1.90586,0.62081 -2.932829,4.51998 -3.212069,12.19549 -0.15682,4.31057 -0.656885,8.80381 -1.111256,9.98499 -0.45437,1.18117 -0.828043,3.7559 -0.830383,5.72161 -0.009,7.58114 -2.91131,13.11005 -6.881847,13.11005 -3.143741,0 -6.942354,-3.01521 -8.169265,-6.48449 -0.797339,-2.2546 -0.951725,-4.95139 -0.591165,-10.32627 0.47701,-7.11077 -0.704864,-15.48145 -2.714425,-19.22506 -1.220843,-2.2743 -0.793678,-6.37481 0.886616,-8.51096 1.38263,-1.75773 1.973138,-1.96545 4.386571,-1.54302 1.533875,0.26847 3.549203,0.96455 4.478507,1.54684 3.086388,1.93386 3.321268,1.4419 3.227799,-6.76085 -0.100577,-8.82637 -0.06054,-8.98547 4.009292,-15.9305 l 2.964861,-5.05943 0.09602,-12.17396 0.09602,-12.17395 -3.92344,-4.89019 c -2.157892,-2.6896 -6.234832,-7.57789 -9.059865,-10.86286 -5.174617,-6.01708 -7.39099,-10.12642 -7.168008,-13.29009 0.19455,-2.76026 0.220171,-8.47589 0.06997,-15.6089 -0.07696,-3.65476 0.07088,-6.98612 0.328537,-7.40301 0.257655,-0.41689 0.239847,-1.66887 -0.03957,-2.78216 -0.324755,-1.29393 -0.160305,-2.23908 0.455838,-2.61988 0.53013,-0.32763 0.729976,-0.97415 0.444104,-1.43671 -0.349161,-0.56495 -1.24455,-0.30514 -2.727863,0.79151 -2.07464,1.53385 -2.321915,1.55794 -4.091327,0.39858 -2.14059,-1.40257 -6.596497,-9.36587 -9.041712,-16.15875 -0.906222,-2.51751 -2.072503,-5.26388 -2.591735,-6.10305 C 9.8177059,99.266768 7.5941668,91.210247 7.5941668,87.42485 c 0,-4.162612 1.1741578,-7.132817 3.7363072,-9.451528 0.882126,-0.79831 1.603867,-1.853375 1.603867,-2.34458 0,-0.491212 0.895953,-1.725364 1.991006,-2.742576 1.095053,-1.017203 3.104646,-3.565946 4.465761,-5.663871 3.453773,-5.323399 5.049794,-6.522203 9.22803,-6.931363 4.454375,-0.436201 9.223452,-2.481699 14.054766,-6.028209 2.007622,-1.473729 4.483734,-2.679508 5.502472,-2.679508 2.532729,0 5.190711,-3.735409 5.190711,-7.294795 0,-1.631928 -1.215946,-5.374045 -2.945427,-9.064662 -2.824134,-6.026544 -2.896865,-6.376743 -1.766193,-8.504113 0.714951,-1.34519 1.204158,-4.321241 1.242542,-7.558912 0.08337,-7.031867 2.052441,-10.2989055 6.207249,-10.2989055 1.223413,0 1.226825,0.094906 0.05015,1.3951135 -1.638395,1.810406 -1.607888,3.040063 0.07211,2.906693 0.823105,-0.06534 1.423346,0.514506 1.566019,1.512818 0.1484,1.038389 1.320061,2.109717 3.267922,2.988081 2.089375,0.942176 2.790717,1.615164 2.248391,2.15749 -0.433503,0.433502 -0.788186,1.382987 -0.788186,2.109964 0,0.726979 -0.60077,1.525729 -1.335044,1.775001 -0.734274,0.249273 -2.007477,0.963424 -2.829341,1.587004 -1.453604,1.102906 -1.425141,1.196945 1.045238,3.453287 l 2.539534,2.319506 4.725118,-1.185013 c 5.558592,-1.394042 9.955,-1.509024 13.286941,-0.347504 2.705441,0.943123 2.811436,1.227743 1.233903,3.313429 -0.616035,0.814469 -1.120063,2.239392 -1.120063,3.166496 0,0.927105 -0.854889,3.522041 -1.899753,5.766526 -1.044863,2.244485 -1.903106,5.368245 -1.907205,6.941689 -0.0041,1.573444 -0.350749,2.860807 -0.770334,2.860807 -0.419585,0 -0.764641,0.944066 -0.76679,2.097925 -0.0021,1.153859 -0.849679,3.471113 -1.883397,5.149453 -2.411651,3.915548 -2.387498,4.195851 0.361541,4.195851 2.111266,0 2.29946,0.221725 2.428168,2.860807 0.07674,1.573444 0.07543,3.804874 -0.0029,4.958733 -0.175364,2.583103 1.029932,2.68301 3.971496,0.329206 1.957766,-1.566586 2.098091,-1.953266 1.270173,-3.500236 -1.374835,-2.568905 -0.406326,-5.570645 1.700426,-5.270197 1.196542,0.170641 1.798723,0.903325 2.078457,2.528892 0.449444,2.611785 0.823859,2.681799 4.771849,0.892323 1.720803,-0.779975 3.637887,-1.106187 4.794645,-0.815858 1.897738,0.476301 4.162795,3.713484 4.162795,5.949402 0,0.628592 0.890604,2.103883 1.979119,3.278409 1.86338,2.010621 1.95013,2.44792 1.48326,7.477402 -0.53821,5.798101 0.005,7.552661 4.29514,13.87625 1.68512,2.483768 2.71773,3.247291 4.64289,3.432969 l 2.47578,0.238789 -0.0495,6.103055 c -0.0764,9.41609 -2.24372,14.8762 -5.90505,14.8762 -3.83861,0 -13.146802,-6.19159 -15.507403,-10.31518 -1.1739,-2.05061 -1.721947,-1.3014 -2.586452,3.53587 -0.403923,2.26008 -1.434943,7.1989 -2.291171,10.97516 -0.969509,4.27589 -1.818169,11.92645 -2.249709,20.28075 -0.461261,8.92986 -1.091699,14.41351 -1.885676,16.40196 -1.517037,3.79933 -3.464713,13.94652 -2.939594,15.31496 0.219653,0.5724 -0.492886,2.86444 -1.583421,5.09342 -1.656847,3.38647 -1.935609,4.85852 -1.695766,8.95481 0.186633,3.1875 -0.25162,7.17021 -1.252972,11.38662 -0.965077,4.06366 -1.604749,9.68159 -1.713442,15.04831 -0.09539,4.71009 -0.512456,9.0013 -0.926805,9.53602 -0.414325,0.53472 -1.203174,2.6887 -1.752974,4.78662 -0.549801,2.09793 -1.252826,4.15771 -1.56228,4.57729 -1.568793,2.12712 -2.35806,17.48787 -1.058389,20.59842 1.003974,2.40285 3.757199,4.19525 6.444133,4.19525 2.174737,0 3.347515,2.6375 1.842147,4.14286 -1.434065,1.43407 -2.018561,1.48768 -3.211674,0.29457 -0.496509,-0.49652 -1.135406,-0.67009 -1.419769,-0.38572 -0.756451,0.75645 1.180175,8.62368 3.361266,13.65459 2.26193,5.21739 1.927018,8.23168 -0.914606,8.23168 -1.006652,0 -2.287474,0.11015 -2.846273,0.24478 -0.558798,0.13463 -4.053496,0.0488 -7.765996,-0.19072 z m 9.092781,-109.55206 c -1.228319,-1.87465 -3.76443,-2.52271 -4.597482,-1.1748 -0.240648,0.38938 0.208762,0.91308 0.998688,1.16379 0.789927,0.25072 2.073495,1.16002 2.852375,2.02067 1.823954,2.01545 2.388261,0.4961 0.746419,-2.00966 z m -7.492235,-60.38766 c -0.734274,-0.19188 -1.935813,-0.19188 -2.670087,0 -0.734274,0.19188 -0.133504,0.34889 1.335044,0.34889 1.468548,0 2.069317,-0.15701 1.335043,-0.34889 z m 13.922597,-1.38133 c 0.547405,-0.65958 0.621549,-1.14432 0.175031,-1.14432 -0.42607,0 -0.972276,0.51494 -1.213791,1.14432 -0.241516,0.62938 -0.320279,1.14432 -0.175031,1.14432 0.145248,0 0.691454,-0.51494 1.213791,-1.14432 z m -48.085624,-6.07407 c 0.5711,-0.68813 0.925008,-3.68321 0.923979,-7.81954 -9.15e-4,-3.687313 0.33146,-7.107122 0.738614,-7.599578 0.481205,-0.582018 0.443434,-1.997774 -0.107927,-4.045372 -2.03334,-7.551242 -8.363851,-8.453708 -8.420808,-1.200456 -0.01334,1.69932 -0.52829,3.756057 -1.144323,4.570525 -1.594539,2.108171 -1.389089,7.223131 0.408554,10.171541 0.837602,1.37379 1.522913,3.18716 1.522913,4.02971 0,2.45762 4.458259,3.84604 6.078998,1.89317 z"
         id="path4293"
         inkscape:connector-curvature="0" />
      <path
         style="fill:#aaa89c;stroke-width:0.76288193"
         d="m 63.781932,286.60491 c -6.346822,-0.40948 -6.85841,-0.57164 -8.565013,-2.71484 -3.183405,-3.9978 -3.722704,-6.12869 -2.30644,-9.11324 1.521952,-3.20727 2.575713,-8.02772 3.494024,-15.98348 0.625876,-5.42226 0.510363,-6.57897 -1.17154,-11.73133 -1.026231,-3.14378 -1.865876,-6.55899 -1.865876,-7.58936 0,-1.1558 -0.365275,-1.75441 -0.953603,-1.56277 -1.90586,0.62081 -2.932829,4.51998 -3.212069,12.19549 -0.15682,4.31057 -0.656885,8.80381 -1.111256,9.98499 -0.45437,1.18117 -0.828043,3.7559 -0.830383,5.72161 -0.009,7.58114 -2.91131,13.11005 -6.881847,13.11005 -3.143741,0 -6.942354,-3.01521 -8.169265,-6.48449 -0.797339,-2.2546 -0.951725,-4.95139 -0.591165,-10.32627 0.47701,-7.11077 -0.704864,-15.48145 -2.714425,-19.22506 -1.220843,-2.2743 -0.793678,-6.37481 0.886616,-8.51096 1.38263,-1.75773 1.973138,-1.96545 4.386571,-1.54302 1.533875,0.26847 3.549203,0.96455 4.478507,1.54684 3.086388,1.93386 3.321268,1.4419 3.227799,-6.76085 -0.100577,-8.82637 -0.06054,-8.98547 4.009292,-15.9305 l 2.964861,-5.05943 0.09599,-12.17 0.09599,-12.17001 -3.753144,-4.7139 c -2.064229,-2.59264 -6.242047,-7.58366 -9.284039,-11.09115 -3.041992,-3.50749 -5.530894,-6.75245 -5.530894,-7.21102 0,-0.45857 -0.568377,-2.02566 -1.263059,-3.48242 -1.136186,-2.38261 -1.146705,-2.82624 -0.104728,-4.4165 1.249043,-1.90628 0.993261,-6.71455 -0.405033,-7.61393 -0.555192,-0.35711 -0.550639,-0.82288 0.01491,-1.52577 0.972377,-1.20848 1.758423,-14.36218 0.858265,-14.36218 -0.977876,0 -0.734329,-2.88831 0.271828,-3.22369 0.493873,-0.16463 0.647256,-0.70496 0.34085,-1.20073 -0.401191,-0.64914 -1.175056,-0.44453 -2.765195,0.7311 -2.07464,1.53385 -2.321915,1.55794 -4.091327,0.39858 -2.140587,-1.40257 -6.596494,-9.36587 -9.041709,-16.15875 -0.906222,-2.51751 -2.072503,-5.26388 -2.591735,-6.10305 C 9.8154179,99.263068 7.5941668,91.20821 7.5941668,87.412575 c 0,-5.285208 0.383487,-5.951303 8.0220542,-13.933726 1.398111,-1.461048 3.250179,-4.044559 4.115707,-5.741135 1.90051,-3.725308 4.201616,-5.46273 7.294755,-5.50782 5.234861,-0.07631 10.835982,-2.302392 15.798485,-6.278869 1.544684,-1.237763 3.947762,-2.482117 5.340174,-2.765231 1.797939,-0.365568 2.600205,-0.987977 2.768177,-2.147588 0.130086,-0.898059 0.730856,-2.043097 1.335044,-2.544528 1.972331,-1.636889 1.282767,-6.591381 -1.846903,-13.26992 -2.824134,-6.026544 -2.896865,-6.376743 -1.766193,-8.504113 0.714951,-1.34519 1.204158,-4.321241 1.242542,-7.558912 0.08337,-7.031867 2.052441,-10.2989055 6.207249,-10.2989055 1.223413,0 1.226825,0.094906 0.05015,1.3951135 -1.638395,1.810406 -1.607888,3.040063 0.07211,2.906693 0.823105,-0.06534 1.423346,0.514506 1.566019,1.512818 0.1484,1.038389 1.320061,2.109717 3.267922,2.988081 2.089375,0.942176 2.790717,1.615164 2.248391,2.15749 -0.433503,0.433502 -0.788186,1.382987 -0.788186,2.109964 0,0.726979 -0.60077,1.525729 -1.335044,1.775001 -0.734274,0.249273 -2.007477,0.963424 -2.829341,1.587004 -1.453604,1.102906 -1.425141,1.196945 1.045238,3.453287 l 2.539534,2.319506 4.725118,-1.185013 c 5.558592,-1.394042 9.955,-1.509024 13.286941,-0.347504 2.705441,0.943123 2.811436,1.227743 1.233903,3.313429 -0.616035,0.814469 -1.120063,2.239392 -1.120063,3.166496 0,0.927105 -0.854889,3.522041 -1.899753,5.766526 -1.044863,2.244485 -1.903106,5.404974 -1.907205,7.023309 -0.0057,2.26741 -0.263533,2.844159 -1.123718,2.514076 -0.812315,-0.311715 -1.251085,0.341173 -1.611391,2.397746 -0.689346,3.934683 -2.07016,5.856619 -5.655361,7.871615 -3.540861,1.990075 -3.577058,3.031453 -0.139635,4.017293 3.686079,1.057153 3.260662,3.462618 -1.013372,5.729989 -1.888133,1.001649 -3.432969,2.288424 -3.432969,2.859495 0,1.506524 1.012276,1.272846 2.111601,-0.487451 0.719896,-1.152738 1.779063,-1.525764 4.332214,-1.525764 4.62219,0 9.219252,2.995647 13.780705,8.980104 2.005648,2.63134 3.772879,4.658005 3.92718,4.503704 0.154308,-0.1543 -0.238897,-1.523772 -0.873783,-3.043265 -1.53356,-3.670317 -1.455609,-5.100369 0.278018,-5.100369 0.78779,0 1.859715,-0.514946 2.382053,-1.144323 0.522337,-0.629378 1.929649,-1.144323 3.127351,-1.144323 2.51513,0 4.226023,2.11998 4.957543,6.142931 1.202981,6.61572 4.120942,12.586941 8.086352,16.547618 1.29817,1.296633 2.45799,1.666348 4.78644,1.525764 l 3.07309,-0.185533 -0.0495,6.103055 c -0.077,9.49229 -2.24379,14.88047 -5.98108,14.87301 -3.79778,-0.008 -12.631831,-5.77739 -15.0056,-9.80063 -1.928764,-3.26901 -2.682125,-2.58884 -3.676511,3.31933 -1.352048,8.03322 -2.518762,13.63212 -3.612819,17.33746 -0.585534,1.98308 -1.05103,5.75934 -1.034437,8.39171 0.05889,9.33958 -0.670917,21.09622 -1.39464,22.46726 -0.997834,1.89036 -2.395282,8.91301 -2.740386,13.77142 -0.158187,2.22695 -0.994919,5.19487 -1.89433,6.71926 -1.318168,2.23413 -1.557082,3.65841 -1.314405,7.83584 0.19761,3.40164 -0.217272,7.26941 -1.243208,11.58991 -0.964806,4.06305 -1.604562,9.68239 -1.713239,15.04831 -0.09539,4.71009 -0.512456,9.0013 -0.926805,9.53602 -0.414325,0.53472 -1.203174,2.6887 -1.752974,4.78662 -0.549801,2.09793 -1.252826,4.15771 -1.56228,4.57729 -1.568793,2.12712 -2.35806,17.48787 -1.058389,20.59842 1.003974,2.40285 3.757199,4.19525 6.444133,4.19525 2.174737,0 3.347515,2.6375 1.842147,4.14286 -1.434065,1.43407 -2.018561,1.48768 -3.211674,0.29457 -0.496509,-0.49652 -1.135406,-0.67009 -1.419769,-0.38572 -0.756451,0.75645 1.180175,8.62368 3.361266,13.65459 2.26193,5.21739 1.927018,8.23168 -0.914606,8.23168 -1.006652,0 -2.287474,0.11015 -2.846273,0.24478 -0.558798,0.13463 -4.053496,0.0488 -7.765996,-0.19072 z m 9.092781,-109.55206 c -1.228319,-1.87465 -3.76443,-2.52271 -4.597482,-1.1748 -0.240648,0.38938 0.208762,0.91308 0.998688,1.16379 0.789927,0.25072 2.073495,1.16002 2.852375,2.02067 1.823954,2.01545 2.388261,0.4961 0.746419,-2.00966 z M 48.408354,144.64792 c 2.76849,-0.51261 2.587426,-0.57387 -1.952116,-0.6605 -3.521421,-0.0672 -5.442316,0.25892 -6.484497,1.10092 -1.380661,1.11548 -1.248583,1.16016 1.952116,0.6605 1.888133,-0.29475 4.806156,-0.79017 6.484497,-1.10092 z M 79.571419,116.5237 c 1.561185,-1.29567 1.638709,-5.40549 0.139359,-7.38781 -0.616034,-0.81446 -1.130979,-1.07199 -1.144323,-0.57227 -0.01334,0.49972 0.319035,1.12075 0.73862,1.38007 1.260205,0.77885 0.863628,3.38863 -0.78361,5.15673 -1.456762,1.56365 -2.198183,1.65753 -12.778274,1.61817 -7.274892,-0.0271 -10.022367,0.15628 -7.798812,0.52041 5.789768,0.94817 20.196839,0.47166 21.62704,-0.7153 z m -29.637301,0.13307 c -1.55019,-0.36302 -3.432969,-2.26663 -3.432969,-3.47095 0,-0.36415 0.29139,-0.482 0.647533,-0.2619 0.356143,0.22012 0.676655,-0.62405 0.712249,-1.87591 0.07607,-2.67542 -0.972833,-2.36846 -1.691521,0.49501 -0.658983,2.62561 1.313076,5.67824 3.591574,5.55955 1.54451,-0.0805 1.560243,-0.12096 0.173134,-0.4458 z m 14.876199,-6.71308 h 7.247379 l 0.241915,-2.51772 c 0.265851,-2.7668 2.512116,-4.20098 5.397826,-3.44635 1.473947,0.38545 1.607638,0.10849 1.607638,-3.33041 0,-2.062948 0.382917,-4.133722 0.850926,-4.601735 1.134154,-1.134153 -2.86757,-6.488562 -4.590766,-6.142557 -0.953247,0.191399 -1.218893,1.23786 -1.218893,4.801579 0,5.323783 -0.680248,6.730633 -3.036651,6.280173 -1.360869,-0.26015 -1.637922,-0.0386 -1.346303,1.07655 0.496088,1.89704 -1.123945,3.68462 -3.339277,3.68462 -1.058585,0 -1.813794,0.45122 -1.813794,1.0837 0,0.59604 -1.054439,1.31531 -2.343197,1.59837 -2.72302,0.59807 -3.971432,-0.16888 -2.03702,-1.25143 1.832014,-1.02525 1.663226,-2.0399 -0.387796,-2.33119 -1.24951,-0.17746 -1.72266,-0.76264 -1.739188,-2.15098 -0.02064,-1.73436 -0.280009,-1.8845 -2.861813,-1.65671 -3.221045,0.28419 -4.482051,-1.332977 -2.951032,-3.784528 0.684063,-1.095354 0.669474,-1.777416 -0.06311,-2.950469 -0.761885,-1.21997 -0.761885,-1.831558 0,-3.051528 0.899248,-1.439924 0.761886,-1.525764 -2.441555,-1.525764 -3.818612,0 -5.064797,1.03459 -2.742941,2.27721 1.809156,0.968235 2.05463,3.467863 0.402808,4.101727 -1.213105,0.46551 -1.602076,5.452312 -0.553814,7.100162 0.311931,0.49034 1.753565,1.00529 3.203631,1.14432 2.310126,0.22149 2.701214,0.5719 3.159399,2.83076 0.554022,2.73135 1.983062,4.14962 3.308943,3.28402 0.439622,-0.287 4.06063,-0.52182 8.046689,-0.52182 z m -33.584531,-0.74153 c 0.585859,-0.70592 0.924989,-3.68079 0.913157,-8.01026 -0.01035,-3.788013 0.298885,-6.887297 0.687194,-6.887297 0.986822,0 0.882839,-4.334276 -0.152196,-6.343928 -1.409168,-2.736076 -3.893318,-5.099301 -5.360236,-5.099301 -2.208082,0 -3.873097,3.255004 -3.280588,6.41335 0.39799,2.121475 0.239281,2.829476 -0.716479,3.196239 -1.842463,0.707016 -1.650261,7.615747 0.300902,10.815947 0.837602,1.37379 1.522913,3.18716 1.522913,4.02971 0,2.46362 4.458941,3.84522 6.085333,1.88554 z M 58.32582,90.490193 c 0.262913,-0.425406 -0.307758,-0.757717 -1.290021,-0.751202 -1.417158,0.0094 -1.537809,0.156246 -0.617184,0.751202 1.419522,0.917366 1.340242,0.917366 1.907205,0 z m 4.958733,0 c 0,-0.419585 -0.363558,-0.762882 -0.807905,-0.762882 -0.444348,0 -0.595736,0.343297 -0.336418,0.762882 0.259318,0.419585 0.622875,0.762882 0.807905,0.762882 0.18503,0 0.336418,-0.343297 0.336418,-0.762882 z m 3.681713,-12.248321 c 0.97598,-1.23554 1.374304,-2.246435 0.885166,-2.246435 -0.915817,0 -3.733432,2.986522 -3.778617,4.00513 -0.05172,1.165828 1.169784,0.423376 2.893451,-1.758695 z"
         id="path4291"
         inkscape:connector-curvature="0" />
      <path
         style="fill:#a8ea4e;stroke-width:0.76288193"
         d="m 64.440453,285.98057 c -6.745417,-0.29148 -8.479519,-1.27145 -11.041112,-6.23949 -1.295088,-2.51174 -1.292286,-2.70798 0.07167,-5.01971 1.635146,-2.77137 2.70224,-7.36518 3.720275,-16.01571 0.65758,-5.58763 0.554172,-6.5999 -1.224447,-11.98614 -1.068478,-3.23569 -1.84162,-6.49701 -1.718097,-7.24738 0.31498,-1.91338 -0.717591,-3.28657 -2.078623,-2.76429 -2.284933,0.87682 -3.421114,4.72779 -3.734741,12.65855 -0.169944,4.29742 -0.674667,9.01277 -1.121608,10.47855 -0.446944,1.46578 -0.812623,4.4184 -0.812623,6.56137 0,9.53744 -3.881374,13.72989 -9.85248,10.64211 -3.84891,-1.99035 -4.914261,-5.63861 -4.337725,-14.85441 0.465077,-7.43417 0.343161,-8.57333 -1.557207,-14.55015 -1.133984,-3.56647 -2.063032,-7.59226 -2.064552,-8.9462 -0.0053,-4.75046 4.293852,-6.94683 8.65738,-4.42291 3.358274,1.94248 3.869592,2.12496 4.419473,1.57719 0.296593,-0.29545 0.724925,-4.56106 0.95185,-9.47912 0.35051,-7.59649 0.666175,-9.29808 2.097926,-11.30878 0.926934,-1.30176 1.685335,-2.58522 1.685335,-2.85212 0,-0.26691 0.725161,-1.46612 1.611469,-2.66491 1.48262,-2.00535 1.613758,-3.17947 1.640086,-14.6842 l 0.02862,-12.50457 -3.738011,-4.80748 c -2.055906,-2.64411 -5.905965,-7.26529 -8.555687,-10.26929 -5.916808,-6.70791 -9.013349,-12.91666 -7.927115,-15.89434 0.457059,-1.25293 0.486654,-3.42086 0.07666,-5.61546 -0.367299,-1.96606 -0.51466,-3.82246 -0.327469,-4.12534 0.187192,-0.30288 0.425694,-4.06417 0.530006,-8.35841 0.104313,-4.29424 0.462842,-7.97654 0.796733,-8.1829 0.333891,-0.20636 0.607075,-0.86988 0.607075,-1.47449 0,-1.47379 -2.973899,-1.40603 -4.644481,0.10582 -1.050498,0.95069 -1.668868,1.02466 -2.928843,0.35034 -1.492079,-0.79853 -7.53589,-11.79439 -8.821912,-16.05022 -0.316975,-1.04896 -1.534468,-3.9756 -2.705541,-6.50364 C 8.9839801,94.713935 7.5284314,88.399996 8.3157893,84.932179 9.0191381,81.834367 13.987321,74.051453 15.674804,73.403904 c 0.56254,-0.215865 2.100224,-2.301569 3.417076,-4.634905 2.765448,-4.900105 4.697001,-6.491907 7.934803,-6.539105 5.323618,-0.0776 10.452779,-2.1453 16.195498,-6.528815 1.86771,-1.425655 4.166802,-2.5921 5.109094,-2.5921 2.356138,0 5.798694,-5.342175 5.798694,-8.998442 0,-1.585889 -1.19346,-5.301679 -2.807601,-8.741357 l -2.807601,-5.982896 1.37291,-3.817936 c 0.915494,-2.5459 1.215708,-4.801031 0.901075,-6.768635 -0.486435,-3.041998 -0.01953,-5.360594 1.07948,-5.360594 0.584387,0 1.678325,4.453109 2.623702,10.680347 0.481618,3.172428 2.823256,7.244081 4.746666,8.253522 0.971875,0.510059 2.943884,0.198835 6.71604,-1.059929 6.097616,-2.034767 11.62104,-2.346914 13.766659,-0.778 1.39961,1.023419 1.406659,1.146214 0.14581,2.539437 -0.728704,0.805209 -1.324916,2.22645 -1.324916,3.158315 0,0.931864 -0.486191,2.634488 -1.080425,3.78361 -0.594233,1.14912 -1.434519,3.792623 -1.8673,5.87445 -1.263455,6.077641 -3.045096,11.88768 -3.997096,13.034771 -0.48526,0.584702 -2.21721,1.813362 -3.848778,2.730354 -3.422742,1.923688 -3.427435,2.970863 -0.0177,3.948762 3.686079,1.057153 3.260663,3.462618 -1.013372,5.729989 -1.888133,1.001649 -3.432969,2.288424 -3.432969,2.859495 0,1.506524 1.012277,1.272846 2.111602,-0.487451 1.403854,-2.247931 7.049086,-2.095011 10.552838,0.285844 2.290855,1.556676 2.473031,1.886508 1.29457,2.343818 -1.230656,0.477564 -1.179599,0.635556 0.497311,1.538976 1.027823,0.553723 2.271338,0.852292 2.763368,0.663487 0.492028,-0.188814 2.181064,1.409233 3.753417,3.5512 1.572354,2.141974 2.993893,3.759421 3.158988,3.594333 0.165088,-0.165088 -0.21929,-1.543386 -0.854176,-3.062879 -1.533562,-3.670317 -1.455611,-5.100369 0.278016,-5.100369 0.78779,0 1.859715,-0.514946 2.382053,-1.144323 0.522337,-0.629378 1.929649,-1.144323 3.127351,-1.144323 2.51513,0 4.226023,2.11998 4.957543,6.142931 1.791315,9.851254 7.426016,18.26929 12.228736,18.26929 h 2.41798 l 0.54315,5.408474 c 0.36481,3.63265 0.26499,5.68662 -0.30402,6.25563 -0.46593,0.46594 -0.84716,1.73201 -0.84716,2.81348 0,2.78279 -2.03235,5.35735 -4.22908,5.35735 -2.87842,0 -12.376643,-6.05734 -14.113092,-9.0004 -1.823319,-3.09029 -3.189664,-2.85578 -3.888372,0.66736 -0.284837,1.43628 -1.092065,5.52945 -1.793825,9.09592 -0.701768,3.56648 -1.648955,7.85769 -2.10486,9.53603 -0.455906,1.67834 -0.90706,5.15921 -1.002565,7.73525 -0.446064,12.0316 -1.361988,21.47565 -2.305841,23.77542 -1.314385,3.2026 -3.494061,14.58264 -2.958925,15.44852 0.565962,0.91574 -1.83031,6.41821 -2.502388,5.74614 -0.302075,-0.30207 -1.077711,-1.9799 -1.723636,-3.72849 -1.448285,-3.92068 -4.33247,-5.30367 -7.424621,-3.56018 -2.977311,1.67874 -2.827835,2.52659 0.738318,4.18786 1.900106,0.88514 3.821536,2.53053 4.649511,3.98153 l 1.411133,2.47297 -1.973694,0.7504 c -1.085531,0.41272 -1.973693,0.95359 -1.973693,1.20195 0,0.24836 1.201539,1.58475 2.670087,2.96977 3.161785,2.98194 3.249197,4.0518 1.039509,12.72288 -1.148644,4.50741 -1.58528,8.33641 -1.477315,12.95503 0.149777,6.40731 -0.897898,11.41436 -4.135203,19.76297 -1.24,3.19782 -2.095878,9.10589 -1.952282,13.47648 0.05742,1.74767 -0.278421,3.41417 -0.746314,3.70334 -0.557598,0.34461 -0.305704,0.90751 0.731079,1.6337 0.869986,0.60936 1.581793,1.57849 1.581793,2.15362 0,1.4887 3.703545,4.20797 5.731085,4.20797 2.291303,0 3.80107,1.78847 2.453718,2.90667 -0.627931,0.52113 -1.39674,0.56232 -2.107333,0.1129 -2.360178,-1.49273 -3.20244,-0.85412 -2.809088,2.12988 0.642287,4.87244 2.517514,11.30466 3.850582,13.20788 2.471273,3.52824 0.831141,7.09592 -3.063681,6.66425 -0.761858,-0.0844 -4.126362,-0.27198 -7.476675,-0.41676 z m 4.184274,-13.16159 c 0,-0.41959 -0.363558,-0.76288 -0.807905,-0.76288 -0.444348,0 -0.595736,0.34329 -0.336418,0.76288 0.259318,0.41958 0.622875,0.76288 0.807905,0.76288 0.18503,0 0.336418,-0.3433 0.336418,-0.76288 z M 48.408354,144.64792 c 2.76849,-0.51261 2.587426,-0.57387 -1.952116,-0.6605 -3.521421,-0.0672 -5.442316,0.25892 -6.484497,1.10092 -1.380661,1.11548 -1.248583,1.16016 1.952116,0.6605 1.888133,-0.29475 4.806156,-0.79017 6.484497,-1.10092 z M 79.571419,116.5237 c 0.692682,-0.57487 1.25942,-2.05564 1.25942,-3.29061 0,-2.60139 -1.307841,-5.42134 -2.245543,-4.84181 -0.353775,0.21864 -0.858036,-0.45833 -1.120582,-1.50439 -0.262545,-1.04607 -0.814111,-1.90194 -1.225702,-1.90194 -0.41159,0 -0.748347,-0.34983 -0.748347,-0.77741 0,-0.44831 0.807399,-0.57477 1.907205,-0.29874 1.840328,0.46189 1.907205,0.34737 1.907205,-3.26586 0,-2.0595 0.382917,-4.127452 0.850926,-4.595465 1.134154,-1.134153 -2.86757,-6.488562 -4.590766,-6.142557 -0.953247,0.191399 -1.218893,1.23786 -1.218893,4.801579 0,5.323783 -0.680248,6.730633 -3.036651,6.280173 -1.360869,-0.26015 -1.637922,-0.0386 -1.346303,1.07655 0.496088,1.89704 -1.123945,3.68462 -3.339277,3.68462 -1.058585,0 -1.813794,0.45122 -1.813794,1.0837 0,0.59604 -1.054439,1.31531 -2.343197,1.59837 -2.72302,0.59807 -3.971432,-0.16888 -2.03702,-1.25143 1.832014,-1.02525 1.663226,-2.0399 -0.387796,-2.33119 -1.24951,-0.17746 -1.72266,-0.76264 -1.739188,-2.15098 -0.02064,-1.73436 -0.280009,-1.8845 -2.861813,-1.65671 -3.262306,0.28783 -4.478073,-1.339347 -2.894862,-3.874465 0.678456,-1.086382 0.712499,-1.748067 0.120398,-2.34017 -2.22226,-2.22226 0.762257,-5.992629 3.521355,-4.448556 0.828287,0.463527 1.760417,0.410522 2.659979,-0.151264 1.046211,-0.65337 1.75795,-0.631849 2.910616,0.08801 0.83917,0.52407 1.525764,0.629446 1.525764,0.234182 0,-0.395272 0.944066,-0.86169 2.097925,-1.036489 1.153859,-0.174792 -1.443437,-0.369243 -5.771767,-0.432112 -4.328332,-0.06286 -8.530221,-0.467807 -9.337531,-0.899865 -1.104851,-0.591295 -1.964662,-0.460033 -3.47689,0.530821 l -2.009052,1.316383 2.001279,1.595758 c 2.221066,1.771016 2.610964,3.811343 0.856955,4.484419 -0.711162,0.272898 -1.144323,1.435271 -1.144323,3.070752 0,4.116496 0.638591,5.045066 3.469566,5.045066 1.398894,0 2.709703,0.26902 2.91291,0.59781 0.203206,0.3288 -0.540877,0.58627 -1.653519,0.57216 -1.656801,-0.021 -2.096634,0.38863 -2.42986,2.263 -0.223782,1.25876 -0.718194,2.117 -1.098692,1.90721 -0.3805,-0.2098 -1.010173,0.57362 -1.399274,1.74092 -0.528474,1.58542 -0.400282,2.59118 0.506696,3.9754 1.10317,1.68365 1.82449,1.87976 7.891262,2.14538 13.168843,0.57656 23.544247,0.20101 24.871181,-0.90025 z m -5.11867,-7.49078 c -0.943082,-0.94308 -0.475068,-3.28508 0.656475,-3.28508 0.629377,0 1.144323,0.66633 1.144323,1.48073 0,1.59231 -1.005426,2.59972 -1.800798,1.80435 z M 49.552677,107.2736 c 0,-0.84765 0.508588,-1.52576 1.144323,-1.52576 0.635735,0 1.144323,0.67811 1.144323,1.52576 0,0.84765 -0.508588,1.52576 -1.144323,1.52576 -0.635735,0 -1.144323,-0.67811 -1.144323,-1.52576 z m -17.676305,2.47937 c 1.075951,-2.09228 1.679748,-20.160452 0.733066,-21.936411 -1.389668,-2.607004 -3.8633,-4.955185 -5.219909,-4.955185 -2.774751,0 -4.271488,4.241418 -5.059122,14.336405 -0.280199,3.591281 -0.06955,5.265861 0.836313,6.648381 0.665968,1.0164 1.210851,2.68971 1.210851,3.71846 0,2.96087 6.174862,4.76285 7.498801,2.18835 z M 93.348931,91.365463 c 0.528014,-0.854344 -1.560215,-3.695736 -2.226471,-3.029488 -0.663547,0.663555 0.285639,3.679982 1.157994,3.679982 0.36655,0 0.847364,-0.292725 1.068477,-0.650494 z M 68.400236,84.196417 c -0.181835,-0.944066 -0.33061,-0.171648 -0.33061,1.716485 0,1.888132 0.148775,2.66055 0.33061,1.716484 0.181835,-0.944066 0.181835,-2.488902 0,-3.432969 z m 7.646697,4.307102 c -0.253499,-0.253498 -0.911485,-0.280596 -1.462191,-0.06019 -0.608576,0.243527 -0.427805,0.424299 0.460909,0.460902 0.804204,0.03311 1.254781,-0.147175 1.001282,-0.40068 z M 62.33095,81.532777 c -2.832199,-0.146786 -7.466707,-0.146786 -10.298907,0 -2.832199,0.146786 -0.514945,0.266879 5.149454,0.266879 5.664399,0 7.981653,-0.120093 5.149453,-0.266879 z m 4.635316,-3.290905 c 0.97598,-1.23554 1.374304,-2.246435 0.885166,-2.246435 -0.915817,0 -3.733432,2.986522 -3.778617,4.00513 -0.05172,1.165828 1.169784,0.423376 2.893451,-1.758695 z"
         id="path4289"
         inkscape:connector-curvature="0" />
      <path
         style="fill:#51b2c4;stroke-width:0.76288193"
         d="m 64.440453,285.98057 c -6.745417,-0.29148 -8.479519,-1.27145 -11.041112,-6.23949 -1.295088,-2.51174 -1.292286,-2.70798 0.07167,-5.01971 1.635146,-2.77137 2.70224,-7.36518 3.720275,-16.01571 0.65758,-5.58763 0.554172,-6.5999 -1.224447,-11.98614 -1.068478,-3.23569 -1.84162,-6.49701 -1.718097,-7.24738 0.31498,-1.91338 -0.717591,-3.28657 -2.078623,-2.76429 -2.284933,0.87682 -3.421114,4.72779 -3.734741,12.65855 -0.169944,4.29742 -0.674667,9.01277 -1.121608,10.47855 -0.446944,1.46578 -0.812623,4.4184 -0.812623,6.56137 0,9.53744 -3.881374,13.72989 -9.85248,10.64211 -3.84891,-1.99035 -4.914261,-5.63861 -4.337725,-14.85441 0.465077,-7.43417 0.343161,-8.57333 -1.557207,-14.55015 -1.133984,-3.56647 -2.063032,-7.59226 -2.064552,-8.9462 -0.0053,-4.75046 4.293852,-6.94683 8.65738,-4.42291 3.358274,1.94248 3.869592,2.12496 4.419473,1.57719 0.296593,-0.29545 0.724925,-4.56106 0.95185,-9.47912 0.35051,-7.59649 0.666175,-9.29808 2.097926,-11.30878 0.926934,-1.30176 1.685335,-2.58522 1.685335,-2.85212 0,-0.26691 0.725161,-1.46612 1.611469,-2.66491 1.48262,-2.00535 1.613758,-3.17947 1.640086,-14.6842 l 0.02862,-12.50457 -3.738011,-4.81065 c -2.055906,-2.64587 -6.022676,-7.42666 -8.815046,-10.624 -5.534312,-6.33692 -9.040838,-13.25278 -7.753934,-15.29295 0.415611,-0.65888 3.987547,-2.32178 7.937636,-3.69534 8.518526,-2.96212 13.508024,-3.22797 17.764719,-0.94652 1.612229,0.8641 3.151981,1.3495 3.421671,1.07865 0.599287,-0.60184 -2.742225,-3.41263 -4.056997,-3.41263 -0.519941,0 -2.371974,-1.03344 -4.115629,-2.29654 -1.743655,-1.26309 -4.627362,-2.85955 -6.408238,-3.54769 -3.814462,-1.47392 -5.243298,-2.54747 -3.390533,-2.54747 2.341557,0 1.362769,-1.34175 -2.708231,-3.71254 -5.027804,-2.92799 -8.434425,-5.9729 -7.810988,-6.98164 0.263074,-0.42567 0.765877,-0.59621 1.11734,-0.37899 0.351462,0.21721 0.45935,-0.29214 0.23975,-1.13189 -0.483046,-1.84717 -2.996539,-2.01334 -4.8658,-0.32169 -1.050498,0.95069 -1.668868,1.02466 -2.928843,0.35034 -1.492079,-0.79853 -7.53589,-11.79439 -8.821912,-16.05022 -0.316975,-1.04896 -1.534468,-3.9756 -2.705541,-6.50364 C 7.7395565,92.027553 7.0651274,85.837621 9.8630329,80.60969 l 0.9817151,-1.834357 2.130424,2.610307 c 2.159055,2.645385 4.089687,2.615785 2.432809,-0.03731 -1.121437,-1.79571 -0.0064,-5.496953 2.607004,-8.65369 0.981912,-1.186045 1.786099,-2.559235 1.787084,-3.051524 9.91e-4,-0.492288 0.987045,-2.04783 2.191246,-3.456759 1.789035,-2.093192 2.52119,-2.456763 4.003341,-1.987969 3.439436,1.087878 5.246853,2.755745 5.246853,4.841754 0,1.113099 0.858242,3.286835 1.907205,4.830519 2.309418,3.398616 2.34369,3.976934 0.353615,5.967003 -1.92343,1.923431 -1.188407,3.670453 0.790708,1.879382 1.065897,-0.964626 1.507191,-1.028678 1.966537,-0.28544 0.335913,0.543523 0.2036,1.087824 -0.305704,1.257596 -1.264538,0.421507 -1.119551,4.378728 0.200573,5.474334 0.604188,0.501427 1.204958,1.659176 1.335043,2.572773 0.130086,0.913597 0.751465,1.661084 1.380843,1.661084 0.889528,0 1.144323,-1.015182 1.144323,-4.559318 v -4.559318 l 3.051528,-0.54617 c 1.67834,-0.300392 7.761086,-0.565952 13.517212,-0.590135 9.001768,-0.03784 10.403946,-0.204857 10.024307,-1.194177 -0.242758,-0.63262 0.09771,-1.972965 0.756594,-2.978551 1.123488,-1.714661 1.093129,-1.901933 -0.488281,-3.012025 -1.444367,-1.013893 -1.522106,-1.296266 -0.541931,-1.968503 2.053998,-1.408692 6.790781,-0.914253 9.612912,1.003434 2.290854,1.556676 2.473031,1.886508 1.294569,2.343818 -1.230656,0.477564 -1.179599,0.635556 0.497312,1.538976 1.027822,0.553723 2.271337,0.852292 2.763367,0.663487 0.492029,-0.188814 2.169225,1.393098 3.727099,3.515344 3.238601,4.411861 4.228319,4.79395 4.228319,1.632392 0,-1.224441 0.208373,-2.769277 0.463062,-3.432969 0.51007,-1.329222 2.588466,-1.670436 2.588466,-0.424955 0,0.429968 0.858242,1.10807 1.907205,1.506882 1.256505,0.477724 1.910996,1.317184 1.918305,2.460485 0.02014,3.147208 2.273747,8.306167 5.111313,11.700808 2.54191,3.040939 3.1862,3.386136 7.15884,3.835588 l 4.36554,0.493905 0.53403,5.317659 c 0.35713,3.55615 0.2534,5.59829 -0.31314,6.16483 -0.46593,0.46594 -0.84716,1.73201 -0.84716,2.81348 0,2.78279 -2.03235,5.35735 -4.22908,5.35735 -2.83991,0 -12.37578,-6.05587 -14.077518,-8.94011 -2.181606,-3.69755 -3.422922,-3.18298 -4.54352,1.88345 -0.533628,2.41262 -1.446698,6.1559 -2.029052,8.3184 -0.582346,2.1625 -1.064075,4.56558 -1.070499,5.34017 -0.03311,3.99175 -3.388348,3.98566 -4.421801,-0.008 -0.359219,-1.38818 -1.628074,-3.07772 -3.013061,-4.01206 l -2.392519,-1.61404 2.821605,-1.82023 c 3.291967,-2.12363 4.004522,-5.20108 2.13778,-9.2329 -1.52404,-3.29169 -1.519119,-12.801136 0.0066,-12.801136 1.580195,0 1.267185,-0.833746 -1.5476,-4.12224 -1.838848,-2.148322 -2.920541,-2.835327 -3.882801,-2.466077 -1.144016,0.439 -1.262201,1.145162 -0.830408,4.961715 0.555625,4.911068 -0.464208,6.741828 -3.261069,5.854138 -1.225731,-0.38903 -1.42469,-0.19108 -1.090894,1.08536 0.597002,2.28293 -0.893703,3.63671 -3.571752,3.24365 -1.906204,-0.27977 -2.303126,-0.0755 -2.303126,1.18539 0,1.01532 -0.63013,1.64388 -1.889276,1.88458 -2.606971,0.49835 -2.931167,-0.11558 -0.93909,-1.77838 l 1.684043,-1.40567 -2.047254,-0.0254 c -1.658578,-0.0205 -2.093082,-0.42367 -2.288646,-2.1233 -0.221634,-1.9262 -0.475642,-2.07742 -3.103205,-1.84744 -3.285389,0.28758 -4.505182,-1.332278 -2.917566,-3.874452 0.678456,-1.086382 0.712499,-1.748068 0.120398,-2.340171 -2.1991,-2.199099 0.984051,-6.315213 3.35932,-4.343911 0.774127,0.642469 1.436306,0.609482 2.621322,-0.130575 1.273762,-0.795472 1.88557,-0.802819 3.111308,-0.03731 0.83917,0.52407 1.525764,0.629446 1.525764,0.234182 0,-0.395272 0.944066,-0.86169 2.097925,-1.036489 1.153859,-0.174792 -1.443437,-0.369243 -5.771767,-0.432112 -4.328332,-0.06286 -8.539698,-0.47288 -9.358592,-0.911133 -1.108767,-0.5934 -1.900905,-0.508255 -3.102646,0.333479 -1.44335,1.010956 -1.613356,1.866162 -1.610038,8.09922 0.0021,3.832912 0.361744,7.326962 0.799345,7.764552 0.55226,0.55227 0.465425,1.73156 -0.28388,3.85532 -1.334837,3.78333 -1.392108,7.77432 -0.125913,8.77428 0.524482,0.4142 4.331444,0.98027 8.459915,1.25793 6.791358,0.45675 7.891443,0.7512 11.549803,3.09142 4.015823,2.5689 5.465144,4.00279 4.759302,4.70863 -0.202482,0.20248 -2.009525,-1.05245 -4.01565,-2.78874 -3.461425,-2.99585 -3.825994,-3.13033 -7.146342,-2.63619 -1.924363,0.28638 -3.640431,0.65878 -3.813485,0.82756 -0.173054,0.16876 0.08442,1.18269 0.572161,2.25318 0.487744,1.07047 0.886806,2.6499 0.886806,3.50984 0,0.85994 1.287363,3.03386 2.860807,4.83093 1.573444,1.79707 3.843208,5.16101 5.043918,7.47542 2.447808,4.71824 7.816623,9.08633 8.614,7.0084 0.518117,-1.35019 -1.457147,-4.57251 -3.459979,-5.64439 -1.872479,-1.00212 -2.619735,-3.03388 -1.577639,-4.28952 0.606517,-0.73081 0.501262,-1.49385 -0.394688,-2.86124 -0.671974,-1.02556 -1.52922,-2.93666 -1.904991,-4.24691 -1.051212,-3.66535 0.749151,-3.03509 5.180592,1.81361 2.109125,2.30772 4.16387,4.19585 4.566103,4.19585 0.964777,0 3.195455,3.44285 3.195455,4.9319 0,0.72849 -0.693865,1.17116 -1.835784,1.17116 -1.460195,0 -1.754153,0.31216 -1.436788,1.52576 0.298057,1.13977 1.040583,1.52576 2.935083,1.52576 2.775339,0 4.04553,1.17441 2.712241,2.5077 -0.466945,0.46694 -0.848988,1.61544 -0.848988,2.5522 0,1.10353 -0.604363,1.88645 -1.716485,2.22361 -0.944066,0.28621 -2.641199,1.51089 -3.771405,2.7215 -2.141466,2.2938 -4.429576,2.9185 -4.429576,1.20936 0,-0.54546 0.400702,-1.39245 0.890449,-1.8822 0.678678,-0.67867 0.55895,-1.01765 -0.503425,-1.42533 -1.007906,-0.38677 -1.887158,0.0816 -3.175305,1.69148 -0.979788,1.22449 -1.783138,2.50997 -1.785222,2.85661 -0.0043,0.70534 10.969543,0.27819 13.346646,-0.51952 0.83917,-0.28161 2.012879,-0.19398 2.608232,0.19473 0.926261,0.60476 0.897249,1.19177 -0.201027,4.06756 -1.553395,4.06751 -3.712671,14.96543 -3.146657,15.88125 0.567645,0.91847 -1.825941,6.42414 -2.499891,5.75019 -0.302075,-0.30207 -1.077711,-1.9799 -1.723636,-3.72849 -1.448285,-3.92068 -4.33247,-5.30367 -7.424621,-3.56018 -2.977311,1.67874 -2.827835,2.52659 0.738318,4.18786 1.900106,0.88514 3.821536,2.53053 4.649511,3.98153 l 1.411133,2.47297 -1.973694,0.7504 c -1.085531,0.41272 -1.973693,0.95359 -1.973693,1.20195 0,0.24836 1.201539,1.58475 2.670087,2.96977 3.161785,2.98194 3.249197,4.0518 1.039509,12.72288 -1.148644,4.50741 -1.58528,8.33641 -1.477315,12.95503 0.149777,6.40731 -0.897898,11.41436 -4.135203,19.76297 -1.24,3.19782 -2.095878,9.10589 -1.952282,13.47648 0.05742,1.74767 -0.278421,3.41417 -0.746314,3.70334 -0.557598,0.34461 -0.305704,0.90751 0.731079,1.6337 0.869986,0.60936 1.581793,1.57849 1.581793,2.15362 0,1.4887 3.703545,4.20797 5.731085,4.20797 2.291303,0 3.80107,1.78847 2.453718,2.90667 -0.627931,0.52113 -1.39674,0.56232 -2.107333,0.1129 -2.360178,-1.49273 -3.20244,-0.85412 -2.809088,2.12988 0.642287,4.87244 2.517514,11.30466 3.850582,13.20788 2.471273,3.52824 0.831141,7.09592 -3.063681,6.66425 -0.761858,-0.0844 -4.126362,-0.27198 -7.476675,-0.41676 z m 4.184274,-13.16159 c 0,-0.41959 -0.363558,-0.76288 -0.807905,-0.76288 -0.444348,0 -0.595736,0.34329 -0.336418,0.76288 0.259318,0.41958 0.622875,0.76288 0.807905,0.76288 0.18503,0 0.336418,-0.3433 0.336418,-0.76288 z M 32.368241,108.83725 c 0.720381,-1.39306 1.163914,-4.30018 1.163914,-7.62882 0,-3.366473 0.310427,-5.378063 0.829938,-5.378063 1.169241,0 0.114327,-5.765869 -1.715428,-9.37604 -1.833546,-3.617663 -4.680052,-4.883505 -7.227744,-3.214197 -0.992328,0.650204 -1.854047,1.603387 -1.914932,2.118195 -1.470198,12.431206 -1.547007,16.641545 -0.337269,18.487835 0.665968,1.0164 1.210851,2.68971 1.210851,3.71846 0,1.34618 0.588053,2.08525 2.097925,2.63671 3.4789,1.2706 4.67327,0.99412 5.892745,-1.36408 z m 9.020187,-8.911336 c 0.718905,-0.71891 -0.950663,-3.447227 -1.791493,-2.927567 -1.100023,0.679849 -0.865795,3.409313 0.29257,3.409313 0.559447,0 1.233962,-0.21679 1.498923,-0.481746 z m -4.041863,-4.095547 c 0,-0.419585 -0.363558,-0.762882 -0.807905,-0.762882 -0.444348,0 -0.595736,0.343297 -0.336418,0.762882 0.259318,0.419585 0.622875,0.762882 0.807905,0.762882 0.18503,0 0.336418,-0.343297 0.336418,-0.762882 z m 56.002366,-4.464904 c 0.528014,-0.854344 -1.560215,-3.695736 -2.226471,-3.029488 -0.663547,0.663555 0.285639,3.679982 1.157994,3.679982 0.36655,0 0.847364,-0.292725 1.068477,-0.650494 z M 68.400236,84.196417 c -0.181835,-0.944066 -0.33061,-0.171648 -0.33061,1.716485 0,1.888132 0.148775,2.66055 0.33061,1.716484 0.181835,-0.944066 0.181835,-2.488902 0,-3.432969 z m 7.646697,4.307102 c -0.253499,-0.253498 -0.911485,-0.280596 -1.462191,-0.06019 -0.608576,0.243527 -0.427805,0.424299 0.460909,0.460902 0.804204,0.03311 1.254781,-0.147175 1.001282,-0.40068 z m -3.607796,31.739071 c 0,-0.41958 0.535206,-0.76288 1.189346,-0.76288 0.65414,0 0.977177,0.3433 0.717859,0.76288 -0.259318,0.41959 -0.794523,0.76288 -1.189346,0.76288 -0.394823,0 -0.717859,-0.34329 -0.717859,-0.76288 z M 48.276492,107.2736 c 0.107669,-2.1802 0.462931,-2.71693 1.936333,-2.92539 0.992459,-0.14043 2.104237,0.0445 2.470617,0.41083 0.379604,0.3796 -0.224789,0.6535 -1.405089,0.63675 -1.684806,-0.0239 -2.170346,0.39759 -2.602477,2.25925 -0.519404,2.23763 -0.528307,2.22913 -0.399384,-0.38144 z m 26.176257,1.75932 c -0.943082,-0.94308 -0.475068,-3.28508 0.656475,-3.28508 0.629377,0 1.144323,0.66633 1.144323,1.48073 0,1.59231 -1.005426,2.59972 -1.800798,1.80435 z M 49.552677,107.2736 c 0,-0.84765 0.508588,-1.52576 1.144323,-1.52576 0.635735,0 1.144323,0.67811 1.144323,1.52576 0,0.84765 -0.508588,1.52576 -1.144323,1.52576 -0.635735,0 -1.144323,-0.67811 -1.144323,-1.52576 z m 28.330525,0.62665 c -0.05714,-0.7043 -0.659705,-1.83636 -1.339034,-2.51569 -0.679328,-0.67933 -1.014451,-1.45583 -0.744718,-1.72557 0.942406,-0.9424 2.875303,1.88908 2.531045,3.7077 -0.188872,0.99777 -0.390154,1.23786 -0.447293,0.53356 z M 47.264031,94.259578 c 0,-0.863934 0.343297,-1.358617 0.762882,-1.099298 0.419585,0.259319 0.762882,0.966175 0.762882,1.570789 0,0.604615 -0.343297,1.099298 -0.762882,1.099298 -0.419585,0 -0.762882,-0.706856 -0.762882,-1.570789 z M 36.583683,78.665523 c 0,-0.629377 0.514945,-1.144322 1.144323,-1.144322 0.629377,0 1.144323,0.514945 1.144323,1.144322 0,0.629378 -0.514946,1.144323 -1.144323,1.144323 -0.629378,0 -1.144323,-0.514945 -1.144323,-1.144323 z m 6.365454,-3.604182 c -1.387336,-1.572116 -1.380438,-1.587321 0.500484,-1.103295 1.048963,0.269938 2.164677,0.495484 2.479366,0.501213 0.993895,0.01808 0.618961,1.354978 -0.500484,1.784549 -0.589955,0.226385 -1.70567,-0.305725 -2.479366,-1.182467 z m 0.988332,-5.698288 c -0.859146,-0.859145 -0.523254,-1.759318 0.656475,-1.759318 0.629377,0 1.144323,0.323037 1.144323,0.717859 0,0.961978 -1.191308,1.650949 -1.800798,1.041459 z m 9.048177,-0.996436 c -0.259318,-0.419585 -1.716464,-0.762882 -3.238103,-0.762882 -1.790046,0 -3.389461,-0.585131 -4.531129,-1.657673 -1.690117,-1.587783 -1.708273,-1.721143 -0.43061,-3.162985 0.977911,-1.103572 1.079406,-1.59433 0.380301,-1.838868 -1.214278,-0.424738 -1.239033,-3.430237 -0.03814,-4.631126 0.503502,-0.503502 1.863458,-0.915458 3.022124,-0.915458 1.801707,0 2.222148,-0.42887 2.904426,-2.962661 0.43877,-1.629464 1.310243,-3.387983 1.93661,-3.90782 2.001881,-1.661414 1.363265,-6.696842 -1.668753,-13.157964 l -2.807601,-5.982896 1.37291,-3.817936 c 0.915494,-2.5459 1.215708,-4.801031 0.901075,-6.768635 -0.486435,-3.041998 -0.01953,-5.360594 1.07948,-5.360594 0.584387,0 1.678325,4.453109 2.623702,10.680347 0.481618,3.172428 2.823256,7.244081 4.746666,8.253522 0.971875,0.510059 2.943884,0.198835 6.71604,-1.059929 6.097616,-2.034767 11.62104,-2.346914 13.766659,-0.778 1.39961,1.023419 1.406659,1.146214 0.14581,2.539437 -0.728704,0.805209 -1.324916,2.22645 -1.324916,3.158315 0,0.931864 -0.486191,2.634488 -1.080425,3.78361 -0.594233,1.14912 -1.434519,3.792623 -1.8673,5.87445 -1.686823,8.114187 -3.183935,12.219303 -5.053865,13.857813 -2.301084,2.016306 -6.460206,3.267706 -10.87974,3.273505 -3.64805,0.0048 -3.664024,0.02728 -2.12835,2.996946 0.612643,1.184722 0.898723,2.369213 0.635734,2.632202 -0.765573,0.765574 -4.665913,0.551298 -5.182601,-0.28472 z"
         id="path4287"
         inkscape:connector-curvature="0" />
      <path
         style="fill:#9ce335;stroke-width:0.76288193"
         d="m 64.440453,285.98057 c -6.745417,-0.29148 -8.479519,-1.27145 -11.041112,-6.23949 -1.295088,-2.51174 -1.292286,-2.70798 0.07167,-5.01971 1.635146,-2.77137 2.70224,-7.36518 3.720275,-16.01571 0.65758,-5.58763 0.554172,-6.5999 -1.224447,-11.98614 -1.068478,-3.23569 -1.84162,-6.49701 -1.718097,-7.24738 0.31498,-1.91338 -0.717591,-3.28657 -2.078623,-2.76429 -2.284933,0.87682 -3.421114,4.72779 -3.734741,12.65855 -0.169944,4.29742 -0.674667,9.01277 -1.121608,10.47855 -0.446944,1.46578 -0.812623,4.4184 -0.812623,6.56137 0,9.53744 -3.881374,13.72989 -9.85248,10.64211 -3.84891,-1.99035 -4.914261,-5.63861 -4.337725,-14.85441 0.465077,-7.43417 0.343161,-8.57333 -1.557207,-14.55015 -1.133984,-3.56647 -2.063032,-7.59226 -2.064552,-8.9462 -0.0053,-4.75046 4.293852,-6.94683 8.65738,-4.42291 3.358274,1.94248 3.869592,2.12496 4.419473,1.57719 0.296593,-0.29545 0.724925,-4.56106 0.95185,-9.47912 0.35051,-7.59649 0.666175,-9.29808 2.097926,-11.30878 0.926934,-1.30176 1.685335,-2.58522 1.685335,-2.85212 0,-0.26691 0.725161,-1.46612 1.611469,-2.66491 1.48262,-2.00535 1.613758,-3.17947 1.640086,-14.6842 l 0.02862,-12.50457 -3.738011,-4.81065 c -2.055906,-2.64587 -6.022676,-7.42666 -8.815046,-10.624 -5.534312,-6.33692 -9.040838,-13.25278 -7.753934,-15.29295 0.415611,-0.65888 3.987547,-2.32178 7.937636,-3.69534 8.518526,-2.96212 13.508024,-3.22797 17.764719,-0.94652 1.612229,0.8641 3.151981,1.3495 3.421671,1.07865 0.599287,-0.60184 -2.742225,-3.41263 -4.056997,-3.41263 -0.519941,0 -2.371974,-1.03344 -4.115629,-2.29654 -1.743655,-1.26309 -4.627362,-2.85955 -6.408238,-3.54769 -3.814462,-1.47392 -5.243298,-2.54747 -3.390533,-2.54747 2.341557,0 1.362769,-1.34175 -2.708231,-3.71254 -5.027804,-2.92799 -8.434425,-5.9729 -7.810988,-6.98164 0.263074,-0.42567 0.765877,-0.59621 1.11734,-0.37899 0.351462,0.21721 0.45935,-0.29214 0.23975,-1.13189 -0.483046,-1.84717 -2.996539,-2.01334 -4.8658,-0.32169 -1.050498,0.95069 -1.668868,1.02466 -2.928843,0.35034 -1.492079,-0.79853 -7.53589,-11.79439 -8.821912,-16.05022 -0.316975,-1.04896 -1.534468,-3.9756 -2.705541,-6.50364 C 7.7395565,92.027553 7.0651274,85.837621 9.8630329,80.60969 l 0.9817151,-1.834357 2.130424,2.610307 c 2.159055,2.645385 4.089687,2.615785 2.432809,-0.03731 -1.121437,-1.79571 -0.0064,-5.496953 2.607004,-8.65369 0.981912,-1.186045 1.786099,-2.559235 1.787084,-3.051524 9.91e-4,-0.492288 0.987045,-2.04783 2.191246,-3.456759 1.789035,-2.093192 2.52119,-2.456763 4.003341,-1.987969 3.439436,1.087878 5.246853,2.755745 5.246853,4.841754 0,1.113099 0.858242,3.286835 1.907205,4.830519 2.309418,3.398616 2.34369,3.976934 0.353615,5.967003 -1.92343,1.923431 -1.188407,3.670453 0.790708,1.879382 1.065897,-0.964626 1.507191,-1.028678 1.966537,-0.28544 0.335913,0.543523 0.2036,1.087824 -0.305704,1.257596 -1.264538,0.421507 -1.119551,4.378728 0.200573,5.474334 0.604188,0.501427 1.204958,1.659176 1.335043,2.572773 0.130086,0.913597 0.751465,1.661084 1.380843,1.661084 0.890029,0 1.144323,-1.017173 1.144323,-4.577291 0,-4.211559 0.141897,-4.597394 1.775888,-4.828852 1.592785,-0.22563 1.686749,-0.08501 0.911339,1.363857 -1.069618,1.998598 -0.390155,4.356002 1.555659,5.397374 1.291962,0.691438 1.452665,1.56786 1.33036,7.255404 -0.08356,3.885805 0.197041,6.805125 0.702705,7.310795 0.61383,0.61382 0.549454,1.67045 -0.237703,3.90149 -1.334837,3.78333 -1.392108,7.77432 -0.125913,8.77428 0.524482,0.4142 4.331444,0.98027 8.459915,1.25793 6.791358,0.45675 7.891443,0.7512 11.549803,3.09142 4.015823,2.5689 5.465144,4.00279 4.759302,4.70863 -0.202482,0.20248 -2.009525,-1.05245 -4.01565,-2.78874 -3.461425,-2.99586 -3.825994,-3.13033 -7.146342,-2.63619 -1.924363,0.28637 -3.640431,0.65877 -3.813485,0.82756 -0.173054,0.16876 0.08442,1.18269 0.572161,2.25318 0.487744,1.07047 0.886806,2.6499 0.886806,3.50984 0,0.85994 1.287363,3.03385 2.860807,4.83093 1.573444,1.79706 3.843208,5.16101 5.043918,7.47542 2.447808,4.71824 7.816623,9.08633 8.614,7.0084 0.518117,-1.35019 -1.457147,-4.57251 -3.459979,-5.64439 -1.872479,-1.00212 -2.619735,-3.03388 -1.577639,-4.28952 0.606517,-0.73081 0.501262,-1.49385 -0.394688,-2.86124 -0.671974,-1.02557 -1.52922,-2.93666 -1.904991,-4.24691 -1.051212,-3.66535 0.749151,-3.03509 5.180592,1.81361 2.109125,2.30772 4.16387,4.19585 4.566103,4.19585 0.964777,0 3.195455,3.44285 3.195455,4.9319 0,0.72849 -0.693865,1.17116 -1.835784,1.17116 -1.460195,0 -1.754153,0.31216 -1.436788,1.52576 0.298057,1.13977 1.040583,1.52576 2.935083,1.52576 2.775339,0 4.04553,1.17441 2.712241,2.5077 -0.466945,0.46694 -0.848988,1.61544 -0.848988,2.5522 0,1.10353 -0.604363,1.88645 -1.716485,2.22361 -0.944066,0.28621 -2.641199,1.51089 -3.771405,2.7215 -2.141466,2.2938 -4.429576,2.9185 -4.429576,1.20936 0,-0.54546 0.400702,-1.39245 0.890449,-1.8822 0.678678,-0.67868 0.55895,-1.01765 -0.503425,-1.42533 -1.007906,-0.38678 -1.887158,0.0816 -3.175305,1.69148 -0.979788,1.22449 -1.783138,2.50997 -1.785222,2.85661 -0.0043,0.70534 10.969543,0.27819 13.346646,-0.51952 0.83917,-0.28161 2.012879,-0.19399 2.608232,0.19473 0.926261,0.60476 0.897249,1.19176 -0.201027,4.06756 -1.553395,4.06751 -3.712671,14.96543 -3.146657,15.88125 0.567645,0.91847 -1.825941,6.42414 -2.499891,5.75019 -0.302075,-0.30207 -1.077711,-1.9799 -1.723636,-3.72849 -1.448285,-3.92068 -4.33247,-5.30367 -7.424621,-3.56018 -2.977311,1.67874 -2.827835,2.52659 0.738318,4.18786 1.900106,0.88514 3.821536,2.53053 4.649511,3.98153 l 1.411133,2.47297 -1.973694,0.7504 c -1.085531,0.41272 -1.973693,0.95359 -1.973693,1.20195 0,0.24836 1.201539,1.58475 2.670087,2.96977 3.161785,2.98194 3.249197,4.0518 1.039509,12.72288 -1.148644,4.50741 -1.58528,8.33641 -1.477315,12.95503 0.149777,6.40731 -0.897898,11.41436 -4.135203,19.76297 -1.24,3.19782 -2.095878,9.10589 -1.952282,13.47648 0.05742,1.74767 -0.278421,3.41417 -0.746314,3.70334 -0.557598,0.34461 -0.305704,0.90751 0.731079,1.6337 0.869986,0.60936 1.581793,1.57849 1.581793,2.15362 0,1.4887 3.703545,4.20797 5.731085,4.20797 2.291303,0 3.80107,1.78847 2.453718,2.90667 -0.627931,0.52113 -1.39674,0.56232 -2.107333,0.1129 -2.360178,-1.49273 -3.20244,-0.85412 -2.809088,2.12988 0.642287,4.87244 2.517514,11.30466 3.850582,13.20788 2.471273,3.52824 0.831141,7.09592 -3.063681,6.66425 -0.761858,-0.0844 -4.126362,-0.27198 -7.476675,-0.41676 z m 4.184274,-13.16159 c 0,-0.41959 -0.363558,-0.76288 -0.807905,-0.76288 -0.444348,0 -0.595736,0.34329 -0.336418,0.76288 0.259318,0.41958 0.622875,0.76288 0.807905,0.76288 0.18503,0 0.336418,-0.3433 0.336418,-0.76288 z M 32.368241,108.83725 c 0.720381,-1.39306 1.163914,-4.30018 1.163914,-7.62882 0,-3.366473 0.310427,-5.378063 0.829938,-5.378063 1.169241,0 0.114327,-5.765869 -1.715428,-9.37604 -1.833546,-3.617663 -4.680052,-4.883505 -7.227744,-3.214197 -0.992328,0.650204 -1.854047,1.603387 -1.914932,2.118195 -1.470198,12.431206 -1.547007,16.641545 -0.337269,18.487835 0.665968,1.0164 1.210851,2.68971 1.210851,3.71846 0,1.34618 0.588053,2.08525 2.097925,2.63671 3.4789,1.2706 4.67327,0.99412 5.892745,-1.36408 z m 9.020187,-8.911336 c 0.718905,-0.71891 -0.950663,-3.447227 -1.791493,-2.927567 -1.100023,0.679849 -0.865795,3.409313 0.29257,3.409313 0.559447,0 1.233962,-0.21679 1.498923,-0.481746 z m -4.041863,-4.095547 c 0,-0.419585 -0.363558,-0.762882 -0.807905,-0.762882 -0.444348,0 -0.595736,0.343297 -0.336418,0.762882 0.259318,0.419585 0.622875,0.762882 0.807905,0.762882 0.18503,0 0.336418,-0.343297 0.336418,-0.762882 z m 45.168397,32.917943 c -0.54228,-0.34403 -1.252469,-1.62613 -1.578197,-2.84912 -0.325728,-1.22299 -1.66671,-2.94995 -2.979962,-3.83767 l -2.387733,-1.61403 2.821605,-1.82022 c 3.291967,-2.12365 4.004522,-5.20109 2.13778,-9.2329 -1.52404,-3.29167 -1.519119,-12.801121 0.0066,-12.801121 1.580195,0 1.267185,-0.833746 -1.5476,-4.12224 -1.838848,-2.148322 -2.920541,-2.835327 -3.882801,-2.466077 -1.144016,0.439 -1.262201,1.145162 -0.830408,4.961715 0.555625,4.911068 -0.464208,6.741833 -3.261069,5.854143 -1.225731,-0.38904 -1.42469,-0.19108 -1.090894,1.08536 0.597002,2.28293 -0.893703,3.63671 -3.571752,3.24365 -1.906204,-0.27977 -2.303126,-0.0755 -2.303126,1.18539 0,1.01532 -0.63013,1.64388 -1.889276,1.88458 -2.606971,0.49835 -2.931167,-0.11558 -0.93909,-1.77838 l 1.684043,-1.40567 -2.047254,-0.0254 c -1.658578,-0.0205 -2.093082,-0.42367 -2.288646,-2.1233 -0.221634,-1.9262 -0.475642,-2.07742 -3.103205,-1.84744 -3.285389,0.28758 -4.505182,-1.332283 -2.917566,-3.874457 0.678456,-1.086382 0.712499,-1.748068 0.120398,-2.340171 -2.1991,-2.199099 0.984051,-6.315213 3.35932,-4.343911 0.774127,0.642469 1.436306,0.609482 2.621322,-0.130575 1.273762,-0.795472 1.88557,-0.802819 3.111308,-0.03731 0.904412,0.564815 1.525764,0.639547 1.525764,0.183504 0,-0.42314 0.658516,-0.769344 1.46337,-0.769344 2.959553,0 3.876804,-0.862461 3.876804,-3.64524 0,-1.503633 -0.588024,-3.368872 -1.315446,-4.172667 -1.225998,-1.35471 -1.230374,-1.601777 -0.06436,-3.633439 1.19701,-2.085673 1.179677,-2.230079 -0.401038,-3.340919 -1.417493,-0.996141 -1.48961,-1.272487 -0.507802,-1.945845 2.053998,-1.408692 6.790781,-0.914253 9.612912,1.003434 2.290854,1.556676 2.473031,1.886508 1.294569,2.343818 -1.230656,0.477564 -1.179599,0.635556 0.497312,1.538976 1.027822,0.553723 2.271338,0.852292 2.763367,0.663487 0.492029,-0.188814 2.169225,1.393098 3.727099,3.515344 3.238602,4.411861 4.228319,4.79395 4.228319,1.632392 0,-1.224441 0.208373,-2.769277 0.463062,-3.432969 0.51007,-1.329222 2.588466,-1.670436 2.588466,-0.424955 0,0.429968 0.858242,1.10807 1.907205,1.506882 1.256505,0.477724 1.910996,1.317184 1.918305,2.460485 0.02014,3.147208 2.273747,8.306167 5.111323,11.700808 2.5419,3.040939 3.1862,3.386136 7.15884,3.835588 l 4.36553,0.493905 0.53403,5.317649 c 0.35714,3.55615 0.25341,5.59829 -0.31313,6.16483 -0.46594,0.46594 -0.84717,1.73201 -0.84717,2.81348 0,2.78279 -2.03235,5.35735 -4.22908,5.35735 -2.83991,0 -12.375783,-6.05587 -14.077521,-8.94011 -2.180866,-3.69629 -3.422098,-3.18243 -4.5496,1.88345 -0.536969,2.41262 -1.430945,6.27471 -1.986621,8.58242 -0.555668,2.30772 -1.207596,5.13992 -1.448713,6.29378 -0.461398,2.20796 -0.925757,2.47291 -2.539626,1.44906 z M 93.348931,91.365463 c 0.528014,-0.854344 -1.560215,-3.695736 -2.226471,-3.029488 -0.663547,0.663555 0.285639,3.679982 1.157994,3.679982 0.36655,0 0.847364,-0.292725 1.068477,-0.650494 z M 76.046933,88.503519 c -0.253499,-0.253498 -0.911485,-0.280596 -1.462191,-0.06019 -0.608576,0.243527 -0.427805,0.424299 0.460909,0.460902 0.804204,0.03311 1.254781,-0.147175 1.001282,-0.40068 z m -3.607796,31.739071 c 0,-0.41958 0.535206,-0.76288 1.189346,-0.76288 0.65414,0 0.977177,0.3433 0.717859,0.76288 -0.259318,0.41959 -0.794523,0.76288 -1.189346,0.76288 -0.394823,0 -0.717859,-0.34329 -0.717859,-0.76288 z M 48.276492,107.2736 c 0.107669,-2.1802 0.462931,-2.71693 1.936333,-2.92539 0.992459,-0.14043 2.104237,0.0445 2.470617,0.41083 0.379604,0.3796 -0.224789,0.6535 -1.405089,0.63675 -1.684806,-0.0239 -2.170346,0.39759 -2.602477,2.25925 -0.519404,2.23763 -0.528307,2.22913 -0.399384,-0.38144 z m 29.60671,0.62665 c -0.05714,-0.7043 -0.659705,-1.83636 -1.339034,-2.51569 -0.679328,-0.67933 -1.014451,-1.45583 -0.744718,-1.72557 0.942406,-0.9424 2.875303,1.88908 2.531045,3.7077 -0.188872,0.99777 -0.390154,1.23786 -0.447293,0.53356 z M 47.264031,94.259578 c 0,-0.863934 0.343297,-1.358617 0.762882,-1.099298 0.419585,0.259319 0.762882,0.966175 0.762882,1.570789 0,0.604615 -0.343297,1.099298 -0.762882,1.099298 -0.419585,0 -0.762882,-0.706856 -0.762882,-1.570789 z M 36.583683,78.665523 c 0,-0.629377 0.514945,-1.144322 1.144323,-1.144322 0.629377,0 1.144323,0.514945 1.144323,1.144322 0,0.629378 -0.514946,1.144323 -1.144323,1.144323 -0.629378,0 -1.144323,-0.514945 -1.144323,-1.144323 z m 6.365454,-3.604182 c -1.387336,-1.572116 -1.380438,-1.587321 0.500484,-1.103295 1.048963,0.269938 2.164677,0.495484 2.479366,0.501213 0.993895,0.01808 0.618961,1.354978 -0.500484,1.784549 -0.589955,0.226385 -1.70567,-0.305725 -2.479366,-1.182467 z m 0.988332,-5.698288 c -0.859146,-0.859145 -0.523254,-1.759318 0.656475,-1.759318 0.629377,0 1.144323,0.323037 1.144323,0.717859 0,0.961978 -1.191308,1.650949 -1.800798,1.041459 z m 9.048177,-0.996436 c -0.259318,-0.419585 -1.716464,-0.762882 -3.238103,-0.762882 -1.790046,0 -3.389461,-0.585131 -4.531129,-1.657673 -1.690117,-1.587783 -1.708273,-1.721143 -0.43061,-3.162985 0.977911,-1.103572 1.079406,-1.59433 0.380301,-1.838868 -1.214278,-0.424738 -1.239033,-3.430237 -0.03814,-4.631126 0.503502,-0.503502 1.863458,-0.915458 3.022124,-0.915458 1.801707,0 2.222148,-0.42887 2.904426,-2.962661 0.43877,-1.629464 1.310243,-3.387983 1.93661,-3.90782 2.001881,-1.661414 1.363265,-6.696842 -1.668753,-13.157964 l -2.807601,-5.982896 1.37291,-3.817936 c 0.915494,-2.5459 1.215708,-4.801031 0.901075,-6.768635 -0.486435,-3.041998 -0.01953,-5.360594 1.07948,-5.360594 0.584387,0 1.678325,4.453109 2.623702,10.680347 0.481618,3.172428 2.823256,7.244081 4.746666,8.253522 0.971875,0.510059 2.943884,0.198835 6.71604,-1.059929 6.097616,-2.034767 11.62104,-2.346914 13.766659,-0.778 1.39961,1.023419 1.406659,1.146214 0.14581,2.539437 -0.728704,0.805209 -1.324916,2.22645 -1.324916,3.158315 0,0.931864 -0.486191,2.634488 -1.080425,3.78361 -0.594233,1.14912 -1.434519,3.792623 -1.8673,5.87445 -1.686823,8.114187 -3.183935,12.219303 -5.053865,13.857813 -2.301084,2.016306 -6.460206,3.267706 -10.87974,3.273505 -3.64805,0.0048 -3.664024,0.02728 -2.12835,2.996946 0.612643,1.184722 0.898723,2.369213 0.635734,2.632202 -0.765573,0.765574 -4.665913,0.551298 -5.182601,-0.28472 z"
         id="path4285"
         inkscape:connector-curvature="0" />
      <path
         style="fill:#a9935f;stroke-width:0.76288193"
         d="m 64.440453,285.98057 c -6.745417,-0.29148 -8.479519,-1.27145 -11.041112,-6.23949 -1.295088,-2.51174 -1.292286,-2.70798 0.07167,-5.01971 1.635146,-2.77137 2.70224,-7.36518 3.720275,-16.01571 0.65758,-5.58763 0.554172,-6.5999 -1.224447,-11.98614 -1.068478,-3.23569 -1.84162,-6.49701 -1.718097,-7.24738 0.31498,-1.91338 -0.717591,-3.28657 -2.078623,-2.76429 -2.284933,0.87682 -3.421114,4.72779 -3.734741,12.65855 -0.169944,4.29742 -0.674667,9.01277 -1.121608,10.47855 -0.446944,1.46578 -0.812623,4.4184 -0.812623,6.56137 0,9.53744 -3.881374,13.72989 -9.85248,10.64211 -3.84891,-1.99035 -4.914261,-5.63861 -4.337725,-14.85441 0.465077,-7.43417 0.343161,-8.57333 -1.557207,-14.55015 -1.133984,-3.56647 -2.063032,-7.59226 -2.064552,-8.9462 -0.0053,-4.75046 4.293852,-6.94683 8.65738,-4.42291 3.358274,1.94248 3.869592,2.12496 4.419473,1.57719 0.296593,-0.29545 0.724925,-4.56106 0.95185,-9.47912 0.35051,-7.59649 0.666175,-9.29808 2.097926,-11.30878 0.926934,-1.30176 1.685335,-2.58522 1.685335,-2.85212 0,-0.26691 0.725161,-1.46612 1.611469,-2.66491 1.48262,-2.00535 1.613758,-3.17947 1.640086,-14.6842 l 0.02862,-12.50457 -3.738011,-4.81065 c -2.055906,-2.64587 -6.022676,-7.42666 -8.815046,-10.624 -4.909328,-5.6213 -8.826518,-12.86108 -8.051478,-14.8808 0.662663,-1.72687 12.761901,-6.01034 18.087247,-6.4034 4.827204,-0.35628 5.086152,-0.27979 9.762553,2.88384 2.642102,1.78739 5.874968,4.60224 7.184148,6.25522 l 2.380327,3.00541 8.264213,-0.28287 c 4.545317,-0.15558 8.264213,-0.009 8.264213,0.32592 0,0.33483 -0.505287,1.8181 -1.122856,3.29615 -1.374942,3.29069 -3.604009,14.71359 -3.047068,15.61474 0.565962,0.91574 -1.83031,6.41821 -2.502388,5.74614 -0.302075,-0.30207 -1.077711,-1.9799 -1.723636,-3.72849 -1.448285,-3.92068 -4.33247,-5.30367 -7.424621,-3.56018 -2.977311,1.67874 -2.827835,2.52659 0.738318,4.18786 1.900106,0.88514 3.821536,2.53053 4.649511,3.98153 l 1.411133,2.47297 -1.973694,0.7504 c -1.085531,0.41272 -1.973693,0.95359 -1.973693,1.20195 0,0.24836 1.201539,1.58475 2.670087,2.96977 3.161785,2.98194 3.249197,4.0518 1.039509,12.72288 -1.148644,4.50741 -1.58528,8.33641 -1.477315,12.95503 0.149777,6.40731 -0.897898,11.41436 -4.135203,19.76297 -1.24,3.19782 -2.095878,9.10589 -1.952282,13.47648 0.05742,1.74767 -0.278421,3.41417 -0.746314,3.70334 -0.557598,0.34461 -0.305704,0.90751 0.731079,1.6337 0.869986,0.60936 1.581793,1.57849 1.581793,2.15362 0,1.4887 3.703545,4.20797 5.731085,4.20797 2.291303,0 3.80107,1.78847 2.453718,2.90667 -0.627931,0.52113 -1.39674,0.56232 -2.107333,0.1129 -2.360178,-1.49273 -3.20244,-0.85412 -2.809088,2.12988 0.642287,4.87244 2.517514,11.30466 3.850582,13.20788 2.471273,3.52824 0.831141,7.09592 -3.063681,6.66425 -0.761858,-0.0844 -4.126362,-0.27198 -7.476675,-0.41676 z m 4.184274,-13.16159 c 0,-0.41959 -0.363558,-0.76288 -0.807905,-0.76288 -0.444348,0 -0.595736,0.34329 -0.336418,0.76288 0.259318,0.41958 0.622875,0.76288 0.807905,0.76288 0.18503,0 0.336418,-0.3433 0.336418,-0.76288 z M 29.717745,126.39067 c 0,-0.39482 0.343297,-0.93003 0.762882,-1.18935 0.419585,-0.25931 0.762882,-0.96617 0.762882,-1.57078 0,-1.47379 -2.973899,-1.40603 -4.644481,0.10582 -1.050498,0.95069 -1.668868,1.02466 -2.928843,0.35034 -1.492079,-0.79853 -7.53589,-11.79439 -8.821912,-16.05022 -0.316975,-1.04896 -1.534468,-3.9756 -2.705541,-6.50364 C 7.7474343,92.044558 7.0659758,85.836034 9.8490402,80.635834 l 0.9677228,-1.808206 1.847782,2.361028 c 1.016279,1.298563 3.91717,3.493519 6.446423,4.877677 4.154617,2.273662 4.548959,2.700808 4.084093,4.42386 -1.23337,4.571563 -1.24806,11.494447 -0.02834,13.355967 0.665968,1.0164 1.210851,2.68473 1.210851,3.70741 0,1.39971 0.593964,2.06647 2.402485,2.69692 3.533255,1.23171 4.29463,1.05888 5.552867,-1.26041 l 1.138144,-2.09792 0.04919,3.05153 c 0.02706,1.67834 0.381604,4.49174 0.787883,6.252 0.673702,2.91891 0.527796,3.53973 -1.658445,7.05665 -2.422544,3.89706 -2.931951,4.44233 -2.931951,3.13833 z m 69.98591,-10.19977 c -2.836884,-1.7608 -5.835682,-4.31587 -6.664004,-5.67794 -0.828322,-1.36206 -1.825988,-2.47648 -2.217034,-2.47648 -0.391053,0 -1.3328,-1.62816 -2.092784,-3.61814 C 87.001135,99.891798 76.89932,89.316263 75.00032,90.044983 c -1.020683,0.391671 -1.143988,1.227523 -0.726044,4.921664 0.540065,4.773535 -0.531556,6.867363 -3.025012,5.910543 -1.576038,-0.60479 -4.150301,0.79203 -4.150301,2.25198 0,1.51208 -2.50842,2.3757 -5.788166,1.99281 -2.254473,-0.2632 -2.57864,-0.53942 -2.164485,-1.8443 0.636313,-2.00485 -0.79604,-2.83996 -3.983752,-2.32267 -2.96156,0.4806 -4.18039,-1.285081 -2.616119,-3.789875 0.678456,-1.086382 0.712499,-1.748067 0.120398,-2.34017 -2.1991,-2.199099 0.984051,-6.315213 3.35932,-4.343911 0.774127,0.642469 1.436306,0.609482 2.621322,-0.130575 1.273762,-0.795472 1.88557,-0.802819 3.111308,-0.03731 0.904412,0.564815 1.525764,0.639547 1.525764,0.183504 0,-0.423163 0.658516,-0.769367 1.46337,-0.769367 2.959553,0 3.876804,-0.862461 3.876804,-3.64524 0,-1.503633 -0.588024,-3.368872 -1.315446,-4.172667 -1.225998,-1.35471 -1.230374,-1.601777 -0.06436,-3.633439 1.19701,-2.085673 1.179677,-2.230079 -0.401038,-3.340919 -1.417493,-0.996141 -1.48961,-1.272487 -0.507802,-1.945845 2.053998,-1.408692 6.790781,-0.914253 9.612912,1.003434 2.290854,1.556676 2.473031,1.886508 1.294569,2.343818 -1.230656,0.477564 -1.179599,0.635556 0.497312,1.538976 1.027822,0.553723 2.271338,0.852292 2.763367,0.663487 0.492029,-0.188814 2.136619,1.348683 3.654648,3.41665 2.284518,3.112131 3.285137,3.843903 5.807698,4.247277 2.703357,0.432287 3.242844,0.892266 4.775489,4.071714 2.368329,4.913051 7.245044,8.319349 12.912044,9.018836 l 4.31827,0.533003 0.53403,5.317649 c 0.35714,3.55616 0.25341,5.5983 -0.31313,6.16483 -0.46594,0.46594 -0.84717,1.73201 -0.84717,2.81348 0,2.93634 -2.02453,5.3648 -4.42983,5.31368 -1.13007,-0.024 -4.37575,-1.48433 -7.212635,-3.24514 z M 93.348931,91.365463 c 0.528014,-0.854344 -1.560215,-3.695736 -2.226471,-3.029488 -0.663547,0.663555 0.285639,3.679982 1.157994,3.679982 0.36655,0 0.847364,-0.292725 1.068477,-0.650494 z M 76.046933,88.503519 c -0.253499,-0.253498 -0.911485,-0.280596 -1.462191,-0.06019 -0.608576,0.243527 -0.427805,0.424299 0.460909,0.460902 0.804204,0.03311 1.254781,-0.147175 1.001282,-0.40068 z M 48.276492,107.2736 c 0.107669,-2.1802 0.462931,-2.71693 1.936333,-2.92539 0.992459,-0.14043 2.104237,0.0445 2.470617,0.41083 0.379604,0.3796 -0.224789,0.6535 -1.405089,0.63675 -1.684806,-0.0239 -2.170346,0.39759 -2.602477,2.25925 -0.519404,2.23763 -0.528307,2.22913 -0.399384,-0.38144 z m 29.60671,0.62665 c -0.05714,-0.7043 -0.659705,-1.83636 -1.339034,-2.51569 -0.679328,-0.67933 -1.014451,-1.45583 -0.744718,-1.72557 0.942406,-0.9424 2.875303,1.88908 2.531045,3.7077 -0.188872,0.99777 -0.390154,1.23786 -0.447293,0.53356 z M 42.88639,97.495669 c -1.275699,-0.810226 -2.614848,-8.225202 -2.039426,-11.29246 0.255193,-1.360295 0.953131,-2.660971 1.550974,-2.890384 0.87295,-0.334982 0.924971,-0.114379 0.26419,1.120299 -1.032706,1.929626 -0.321429,4.292432 1.602041,5.321842 1.153003,0.617064 1.474098,1.613938 1.474098,4.576475 0,3.78053 -0.684945,4.54049 -2.851877,3.164228 z M 43.411986,75.56865 c -0.754568,-0.909203 -0.566592,-1.098977 1.088547,-1.098977 2.144149,0 2.703938,1.092637 0.912069,1.780238 -0.5987,0.229742 -1.498977,-0.07682 -2.000616,-0.681261 z M 59.010497,62.502797 c -2.491561,-0.490656 -6.452041,-5.077442 -7.207265,-8.347017 -0.563437,-2.439271 -0.420169,-3.314186 0.822202,-5.02104 2.255993,-3.09944 1.890537,-6.960106 -1.303066,-13.76556 l -2.807601,-5.982896 1.37291,-3.817936 c 0.915494,-2.5459 1.215708,-4.801031 0.901075,-6.768635 -0.486435,-3.041998 -0.01953,-5.360594 1.07948,-5.360594 0.584387,0 1.678325,4.453109 2.623702,10.680347 0.481618,3.172428 2.823256,7.244081 4.746666,8.253522 0.971875,0.510059 2.943884,0.198835 6.71604,-1.059929 6.097616,-2.034767 11.62104,-2.346914 13.766659,-0.778 1.39961,1.023419 1.406659,1.146214 0.14581,2.539437 -0.728704,0.805209 -1.324916,2.22645 -1.324916,3.158315 0,0.931864 -0.486191,2.634488 -1.080425,3.78361 -0.594233,1.14912 -1.434519,3.792623 -1.8673,5.87445 -2.475555,11.908251 -4.19706,14.768074 -9.831805,16.332925 -2.900101,0.8054 -3.874622,0.845668 -6.752166,0.279001 z"
         id="path4283"
         inkscape:connector-curvature="0" />
      <path
         style="fill:#9b6d50;stroke-width:0.76288193"
         d="m 57.768454,284.97226 c -0.726137,-0.42312 -2.185936,-2.24649 -3.243997,-4.05193 -1.780976,-3.03901 -1.841881,-3.44729 -0.820636,-5.50128 1.361276,-2.73786 3.211525,-11.87439 3.848123,-19.00203 0.383807,-4.29728 0.170728,-6.22017 -1.091071,-9.84618 -0.862412,-2.4783 -1.568022,-5.84932 -1.568022,-7.49115 0,-2.64677 -0.191606,-2.95753 -1.690271,-2.74138 -0.929648,0.13407 -2.471958,1.40651 -3.427353,2.82763 -1.44765,2.15332 -1.663615,3.23377 -1.296156,6.48449 0.24251,2.14536 0.04084,6.13208 -0.448165,8.85938 -0.489001,2.7273 -1.166695,7.92197 -1.505987,11.54371 -0.728571,7.77706 -1.921513,10.65294 -4.845488,11.68125 -2.583767,0.90867 -5.266686,-0.36473 -7.691714,-3.65072 -1.451311,-1.96657 -1.58268,-3.05262 -1.414616,-11.69485 0.144872,-7.44963 -0.139211,-10.7658 -1.302846,-15.20843 -0.818463,-3.1248 -1.684755,-5.99963 -1.925093,-6.3885 -1.730469,-2.79996 5.166227,-8.22164 7.922531,-6.22811 2.120648,1.53377 4.647559,2.66226 5.053141,2.25669 0.214791,-0.21479 0.523091,-4.13265 0.68511,-8.70635 0.301774,-8.5189 0.651658,-9.89663 3.855513,-15.18175 3.326391,-5.48727 3.665818,-6.72807 3.443368,-12.58756 -0.119469,-3.14688 -0.26426,-8.46798 -0.321758,-11.82467 l -0.104541,-6.10305 -4.341378,-5.72162 c -2.387757,-3.14688 -6.323163,-7.86636 -8.745346,-10.48773 -5.088468,-5.50691 -8.60713,-12.77411 -6.930107,-14.31297 1.489904,-1.36715 10.315717,-4.65363 15.199649,-5.65991 3.417115,-0.70406 4.885827,-0.67412 7.272792,0.14826 3.914149,1.34853 11.038817,6.6451 12.425389,9.2372 1.428737,2.67092 3.373144,3.07964 11.670862,2.45325 6.429466,-0.48537 6.840965,-0.42981 6.298579,0.85033 -1.545744,3.6483 -3.475493,11.79335 -3.838562,16.20172 -0.222621,2.70305 -0.808652,5.40128 -1.302293,5.99609 -0.73747,0.8886 -1.130991,0.53174 -2.206676,-2.00106 -1.868041,-4.39849 -4.375719,-5.87728 -7.960335,-4.69425 -2.735652,0.90284 -8.713839,6.11724 -8.713839,7.60053 0,0.75168 1.129858,2.25351 4.386571,5.83074 0.944067,1.03697 1.716485,2.82267 1.716485,3.9682 0,1.81348 0.449343,2.21546 3.47513,3.10888 4.436801,1.31002 5.940968,2.73308 4.915059,4.65001 -0.418753,0.78245 -0.761369,2.45483 -0.761369,3.71641 0,3.36462 -1.390963,3.65566 -2.683766,0.56154 -0.907092,-2.17097 -1.738663,-2.85993 -4.276905,-3.54341 -1.732983,-0.46664 -3.428833,-0.56597 -3.768557,-0.22074 -0.339722,0.34523 -0.725175,2.17253 -0.85656,4.06066 -0.198902,2.85841 -0.51773,3.47267 -1.904956,3.67015 -2.245115,0.3196 -3.177753,4.26685 -1.457324,6.1679 0.668906,0.73914 1.216192,1.75987 1.216192,2.2683 0,0.50844 0.652388,1.85459 1.449753,2.99146 0.798224,1.1381 1.662361,4.0727 1.922841,6.52996 0.2602,2.4546 0.901165,5.27992 1.424366,6.27849 0.888101,1.695 0.811803,5.25989 -0.4477,20.91819 -0.126188,1.56879 0.226839,1.95081 1.989572,2.15294 1.178641,0.13516 2.345511,0.82176 2.593046,1.52577 0.736241,2.09394 3.44287,4.71299 4.870585,4.71299 2.149081,0 3.743823,0.84717 3.743823,1.98882 0,1.42907 -1.477895,1.3425 -3.166273,-0.18546 -1.277078,-1.15574 -1.414781,-1.15547 -1.859588,0.004 -0.882827,2.30061 1.317712,12.68819 3.59585,16.9741 2.72249,5.1219 2.035622,5.6348 -7.50991,5.60788 -4.523708,-0.0127 -8.819036,-0.36939 -9.545172,-0.79251 z M 69.715627,273.6683 c 0.693462,-1.12205 -1.7831,-2.75092 -2.735101,-1.79892 -0.44916,0.44916 -0.585999,1.18986 -0.304086,1.64601 0.617927,0.99982 2.458531,1.09243 3.039187,0.15291 z M 22.266389,123.1034 c -1.441732,-1.78033 -7.806284,-15.37194 -7.806284,-16.67046 0,-0.71027 -0.981033,-3.30059 -2.180074,-5.75627 C 9.4019915,94.78235 8.1802936,89.519693 8.7727871,85.568666 c 0.7361652,-4.909099 1.4781189,-5.707394 3.3936369,-3.651328 0.873958,0.938086 2.886246,2.367406 4.471749,3.176267 3.984805,2.032897 5.000941,3.38615 3.977927,5.297673 -0.448702,0.838407 -0.815821,3.475576 -0.815821,5.860383 0,3.732529 0.319386,4.699779 2.294768,6.949609 1.713603,1.95169 2.177225,3.08193 1.830641,4.46283 -0.405061,1.61389 -0.06604,2.00851 2.663964,3.10084 2.900329,1.16048 3.128093,1.4645 3.128093,4.17529 0,1.60802 -0.343297,3.13584 -0.762882,3.39516 -1.806445,1.11644 -0.56815,1.8941 2.288646,1.43727 3.193596,-0.51067 3.34468,-0.4188 2.581573,1.56982 -0.352247,0.91795 -1.081028,1.11004 -2.909731,0.76698 -1.722448,-0.32313 -2.73323,-0.10411 -3.437867,0.74492 -1.194587,1.43939 -4.133392,1.57982 -5.211095,0.24902 z m 82.649981,-4.29799 c -0.2292,-0.37086 -1.88128,-1.36271 -3.67127,-2.2041 -4.506394,-2.11826 -12.785441,-10.92058 -12.785441,-13.59354 0,-0.58847 -1.137892,-2.3583 -2.528657,-3.932958 -2.986515,-3.381405 -6.944201,-10.0464 -6.330178,-10.660428 0.621799,-0.621795 2.814109,1.364239 2.34457,2.12397 -0.409088,0.661922 1.991069,2.240485 3.406581,2.240485 0.443868,0 1.4105,-1.24915 2.148077,-2.775891 1.612146,-3.337051 2.782208,-3.6778 3.102817,-0.903626 0.129804,1.123153 0.730574,2.452551 1.335043,2.954222 0.60447,0.501664 1.099039,1.876598 1.099039,3.055403 0,1.561299 0.673243,2.604197 2.479366,3.840668 1.363652,0.933554 3.680906,2.824625 5.149453,4.202375 3.00816,2.82217 5.91002,4.12161 9.20425,4.12161 1.51816,0 2.23898,0.38245 2.23898,1.18794 0,2.43914 -1.78105,8.3946 -2.89584,9.68313 -1.22708,1.4183 -3.60281,1.78363 -4.29679,0.66074 z m -72.909979,-1.95076 c 0,-0.65414 0.343297,-1.18935 0.762882,-1.18935 0.419585,0 0.762882,0.32304 0.762882,0.71786 0,0.39482 -0.343297,0.93003 -0.762882,1.18935 -0.419585,0.25931 -0.762882,-0.0637 -0.762882,-0.71786 z m 76.843899,-14.61982 c -0.83091,-0.8309 0.17319,-1.82717 1.84154,-1.82717 0.89621,0 1.41107,0.4002 1.22681,0.9536 -0.36273,1.0894 -2.30076,1.64116 -3.06835,0.87357 z M 53.521697,99.756478 c -0.798122,-0.506287 -0.776448,-0.804818 0.111964,-1.542136 1.129433,-0.937345 0.904041,-3.487934 -0.462678,-5.235758 -0.508316,-0.650051 -0.369476,-1.086221 0.445289,-1.398881 2.044736,-0.784639 3.858355,0.856892 3.904111,3.533662 0.0234,1.36922 0.471676,2.634231 0.996157,2.811135 1.235936,0.416893 1.288809,-3.742424 0.06315,-4.968077 -1.267513,-1.267513 1.078112,-2.064878 3.018856,-1.026221 1.036409,0.554668 1.37826,1.351674 1.132094,2.639403 -0.467111,2.443541 1.005987,3.266958 2.12016,1.185107 0.689932,-1.289149 0.658394,-1.781055 -0.146067,-2.27824 -1.449727,-0.895982 0.341465,-2.588863 2.046802,-1.934463 0.990185,0.379969 1.169485,1.052251 0.790003,2.962103 -0.269993,1.358815 -0.48793,3.19395 -0.484303,4.078077 0.0059,1.440921 -0.428711,1.607511 -4.194025,1.607511 -2.31034,0 -4.383051,-0.295194 -4.606025,-0.655969 -0.222974,-0.360782 -1.048597,-0.311736 -1.83472,0.108986 -1.700764,0.910223 -1.648445,0.908173 -2.900772,0.113761 z m 16.232252,-1.65415 c -1.32605,-1.465267 -1.33119,-1.678149 -0.102729,-4.254257 1.759138,-3.688953 3.119411,-2.948172 3.399947,1.851538 0.256455,4.387721 -0.802476,5.159381 -3.297218,2.402719 z M 69.056021,86.221373 c -0.283069,-1.127837 -0.114272,-2.441329 0.392149,-3.051528 1.019554,-1.228491 4.35536,-1.398782 6.042495,-0.308471 0.935963,0.604866 0.848791,0.741643 -0.478751,0.751202 -2.044995,0.01472 -3.816606,1.913041 -2.528374,2.709208 0.643533,0.397728 0.602064,0.721701 -0.153676,1.200562 -1.787635,1.132697 -2.760012,0.746289 -3.273843,-1.300973 z m -1.194176,-6.273094 c 0,-0.921981 1.44734,-1.996912 1.976396,-1.467861 0.192017,0.192017 -0.17412,0.783373 -0.813637,1.314125 -0.725031,0.601723 -1.162759,0.659603 -1.162759,0.153736 z m 2.773968,-4.338662 c -0.265713,-0.692438 0.0024,-1.139944 0.682944,-1.139944 1.233877,0 1.514567,1.192094 0.437436,1.8578 -0.375619,0.232145 -0.879789,-0.09089 -1.12038,-0.717856 z M 54.638707,58.589815 C 52.642671,56.384219 52.25702,52.822286 53.765067,50.520716 55.744773,47.499304 54.949335,41.71366 51.588861,34.692 c -2.78038,-5.80956 -2.78582,-5.840758 -1.595952,-9.154583 0.762335,-2.123129 1.040516,-4.566157 0.769532,-6.758125 -0.39578,-3.201419 0.436528,-6.236821 1.436064,-5.237285 0.242078,0.242078 0.810718,2.463566 1.263645,4.936639 1.452145,7.929012 2.3779,11.009553 3.88393,12.92416 1.712598,2.177213 3.15681,2.318136 7.056862,0.688591 4.94315,-2.06538 10.843039,-2.830836 13.940348,-1.808633 2.687149,0.886839 2.726689,0.953215 1.277225,2.14395 -0.822676,0.675826 -2.465724,2.892735 -3.651218,4.926462 -1.766987,3.031284 -2.074516,4.268674 -1.706396,6.865938 0.36293,2.560646 0.04823,3.893231 -1.640961,6.94854 -3.706238,6.703635 -9.379131,8.189797 -14.57451,3.818174 -1.22678,-1.032267 -2.423197,-1.876849 -2.658704,-1.876849 -0.235507,0 0.07152,1.416349 0.682288,3.147442 0.610766,1.731093 1.110483,3.275929 1.110483,3.432969 0,0.754338 -1.421195,0.139772 -2.54279,-1.099575 z"
         id="path4281"
         inkscape:connector-curvature="0" />
      <path
         style="fill:#322d23;stroke-width:0.76288193"
         d="m 67.480404,285.20718 c -5.143046,-0.26879 -7.402691,-0.83937 -6.852116,-1.73022 0.251716,-0.40728 -0.18053,-0.74052 -0.960546,-0.74052 -2.101009,0 -3.249127,-1.52066 -3.249127,-4.3034 0,-1.35987 -0.371113,-2.70185 -0.824696,-2.98218 -0.48675,-0.30083 -0.60829,-1.33528 -0.296597,-2.52438 1.374945,-5.24542 2.647057,-12.17112 2.647057,-14.41126 v -2.47965 h 4.387881 4.387882 l 1.665777,3.24225 c 0.916178,1.78324 1.817921,4.78709 2.003873,6.67522 0.185953,1.88813 0.605374,4.29121 0.932046,5.34017 0.585717,1.88077 0.571928,1.88778 -0.994819,0.5053 -1.888683,-1.66656 -4.249927,-1.41407 -4.617335,0.49371 -0.421745,2.18995 1.399336,3.76699 3.796334,3.2876 2.506685,-0.50134 3.707312,0.88937 1.905345,2.20701 -1.804455,1.31945 -1.583495,1.77143 1.218494,2.49252 1.923692,0.49506 2.533468,1.09837 2.720759,2.6919 0.132767,1.12961 -0.03888,2.08245 -0.381441,2.11741 -2.630559,0.2685 -4.156728,0.29266 -7.488771,0.11852 z m -30.700098,-8.96807 c -3.28592,-2.32383 -3.607336,-3.9026 -3.802509,-18.67777 -0.102538,-7.76232 -0.251802,-15.22108 -0.331698,-16.57502 -0.158772,-2.69055 1.852861,-5.56515 3.865101,-5.52318 1.664396,0.0347 4.045752,2.14346 5.824123,5.15738 0.815432,1.38196 2.583292,3.16208 3.928576,3.95582 2.738668,1.61585 2.739053,1.62469 0.560906,12.87588 -0.597596,3.08687 -1.087071,7.54973 -1.087724,9.91746 -0.0016,5.81676 -1.888892,9.57119 -4.957547,9.86216 -1.258756,0.11935 -3.058408,-0.32738 -3.999228,-0.99273 z m 15.869647,-81.08823 c -2.542912,-2.12291 -2.562917,-2.18996 -2.158092,-7.23322 l 0.408612,-5.09045 -3.730404,-4.78216 c -2.051722,-2.63019 -6.248081,-7.70019 -9.325242,-11.26666 -5.327383,-6.17451 -8.863573,-12.6859 -7.812779,-14.38612 0.262247,-0.42433 3.30266,-1.8743 6.756472,-3.22216 4.607107,-1.79793 7.603501,-2.47161 11.250069,-2.52937 4.754367,-0.0753 5.185438,0.0761 9.917466,3.48154 2.720882,1.95814 5.630286,4.60953 6.465344,5.89197 1.897197,2.91361 4.170939,3.43205 12.009142,2.73821 5.827291,-0.51583 6.125006,-0.46858 5.541722,0.8796 -1.212098,2.80158 -3.392112,11.88729 -3.512949,14.64102 -0.162374,3.70033 -0.720542,6.23718 -1.372334,6.23718 -0.289809,0 -0.942505,-1.14926 -1.450437,-2.55393 -0.561283,-1.55219 -1.900955,-3.08031 -3.41553,-3.89596 -2.306367,-1.24206 -2.706947,-1.25224 -5.37705,-0.1366 -4.213993,1.76072 -7.218003,4.09596 -9.730303,7.56409 -2.518828,3.47714 -2.796324,6.35397 -1.081667,11.21383 1.774487,5.02944 0.668261,5.83054 -3.38204,2.44919 z M 20.415581,118.52611 c -6.020224,-11.67709 -6.459496,-13.75951 -3.214365,-15.23809 1.595381,-0.7269 2.370498,-0.67796 4.005131,0.25294 2.013976,1.14692 2.410115,2.80047 1.297785,5.41718 -0.417336,0.98177 -0.08436,1.42095 1.350292,1.78103 2.544799,0.6387 5.413854,3.7719 4.835062,5.28021 -0.252123,0.65702 -1.325446,1.52423 -2.385161,1.92714 -1.474297,0.56052 -1.926754,1.27442 -1.926754,3.04007 0,3.55319 -1.267361,2.76614 -3.96199,-2.46048 z M 70.913373,97.356131 c 0,-0.419585 0.343297,-0.762882 0.762882,-0.762882 0.419585,0 0.762882,0.343297 0.762882,0.762882 0,0.419585 -0.343297,0.762881 -0.762882,0.762881 -0.419585,0 -0.762882,-0.343296 -0.762882,-0.762881 z m 13.884452,-0.152577 c -1.379855,-1.379855 -1.11898,-2.096453 1.065571,-2.927018 1.089563,-0.414252 2.15949,-1.435644 2.377621,-2.269764 0.515838,-1.972576 1.376399,-1.918457 2.845473,0.178934 1.62117,2.314546 1.551977,2.532127 -1.381831,4.345322 -2.96935,1.835158 -3.650802,1.928558 -4.906834,0.672526 z M 73.964901,31.829905 c 0,-0.84204 1.979428,-1.662308 2.574763,-1.066973 0.239406,0.239407 0.252709,0.730698 0.02956,1.09176 -0.535578,0.86658 -2.604325,0.846891 -2.604325,-0.02479 z M 51.679374,28.376703 c -1.047289,-1.441424 -1.157045,-2.306354 -0.553597,-4.362597 0.41397,-1.4106 0.542496,-3.85209 0.285613,-5.425534 -0.289818,-1.775173 -0.16523,-2.860807 0.328309,-2.860807 0.437453,0 0.982573,1.201539 1.211378,2.670086 0.228805,1.468548 0.611097,3.95745 0.849537,5.530894 0.238439,1.573444 0.618952,3.633225 0.845584,4.577292 0.553086,2.303958 -1.256183,2.225086 -2.966824,-0.129334 z"
         id="path4279"
         inkscape:connector-curvature="0" />
    </g>
  </g>
</svg>
